<svg width="149" height="28" viewBox="0 0 149 28" fill="none"
  xmlns="http://www.w3.org/2000/svg">
  <path d="M11.52 28V6.436H0.72V2.08H26.64V6.436H15.84V28H11.52ZM32.8604 28V0.279999H37.1444V7.12H49.2764C50.1404 7.12 50.9324 7.348 51.6524 7.804C52.3964 8.236 52.9844 8.812 53.4164 9.532C53.8484 10.252 54.0644 11.056 54.0644 11.944V28H49.7804V12.088C49.7804 11.896 49.7084 11.74 49.5644 11.62C49.4444 11.476 49.3004 11.404 49.1324 11.404H37.8284C37.6604 11.404 37.5044 11.476 37.3604 11.62C37.2164 11.74 37.1444 11.896 37.1444 12.088V28H32.8604ZM65.1881 28C64.3001 28 63.4961 27.784 62.7761 27.352C62.0561 26.896 61.4681 26.308 61.0121 25.588C60.5801 24.868 60.3641 24.064 60.3641 23.176V11.944C60.3641 11.056 60.5801 10.252 61.0121 9.532C61.4681 8.812 62.0561 8.236 62.7761 7.804C63.4961 7.348 64.3001 7.12 65.1881 7.12H76.7441C77.6561 7.12 78.4721 7.348 79.1921 7.804C79.9121 8.236 80.4881 8.812 80.9201 9.532C81.3521 10.252 81.5681 11.056 81.5681 11.944V19.72H64.6481V23.032C64.6481 23.224 64.7081 23.392 64.8281 23.536C64.9721 23.656 65.1401 23.716 65.3321 23.716H81.5681V28H65.1881ZM64.6481 15.796H77.2841V12.088C77.2841 11.896 77.2121 11.74 77.0681 11.62C76.9481 11.476 76.7921 11.404 76.6001 11.404H65.3321C65.1401 11.404 64.9721 11.476 64.8281 11.62C64.7081 11.74 64.6481 11.896 64.6481 12.088V15.796ZM88.9979 28V7.12H115.278C116.19 7.12 117.006 7.348 117.726 7.804C118.446 8.236 119.022 8.812 119.454 9.532C119.886 10.252 120.102 11.056 120.102 11.944V28H115.818V12.088C115.818 11.896 115.746 11.74 115.602 11.62C115.482 11.476 115.326 11.404 115.134 11.404H107.394C107.226 11.404 107.07 11.476 106.926 11.62C106.806 11.74 106.746 11.896 106.746 12.088V28H102.39V12.088C102.39 11.896 102.33 11.74 102.21 11.62C102.09 11.476 101.934 11.404 101.742 11.404H93.9659C93.7979 11.404 93.6419 11.476 93.4979 11.62C93.3779 11.74 93.3179 11.896 93.3179 12.088V28H88.9979ZM131.732 28C130.844 28 130.04 27.784 129.32 27.352C128.6 26.896 128.012 26.308 127.556 25.588C127.124 24.868 126.908 24.064 126.908 23.176V11.944C126.908 11.056 127.124 10.252 127.556 9.532C128.012 8.812 128.6 8.236 129.32 7.804C130.04 7.348 130.844 7.12 131.732 7.12H143.288C144.2 7.12 145.016 7.348 145.736 7.804C146.456 8.236 147.032 8.812 147.464 9.532C147.896 10.252 148.112 11.056 148.112 11.944V19.72H131.192V23.032C131.192 23.224 131.252 23.392 131.372 23.536C131.516 23.656 131.684 23.716 131.876 23.716H148.112V28H131.732ZM131.192 15.796H143.828V12.088C143.828 11.896 143.756 11.74 143.612 11.62C143.492 11.476 143.336 11.404 143.144 11.404H131.876C131.684 11.404 131.516 11.476 131.372 11.62C131.252 11.74 131.192 11.896 131.192 12.088V15.796Z" fill="#48E4D1"/>
</svg>
