<svg width="250" height="39" viewBox="0 0 250 39" fill="none"
  xmlns="http://www.w3.org/2000/svg">
  <path d="M0.148438 19.6094V1.5625H6.61328V20.2734C6.61328 22.3047 6.9974 23.737 7.76562 24.5703C8.53385 25.3906 9.58854 25.8008 10.9297 25.8008C12.2578 25.8008 13.306 25.3906 14.0742 24.5703C14.8555 23.737 15.2461 22.3047 15.2461 20.2734V1.5625H21.6523V19.6094C21.6523 23.3333 20.6693 26.0742 18.7031 27.832C16.75 29.5898 14.1719 30.4688 10.9688 30.4688C7.70052 30.4688 5.07682 29.5898 3.09766 27.832C1.13151 26.0742 0.148438 23.3333 0.148438 19.6094ZM25.8516 30V10.8594H31.9648L32.0234 13.2617H32.1016C32.5964 12.4023 33.3516 11.7122 34.3672 11.1914C35.3958 10.6706 36.6003 10.4102 37.9805 10.4102C39.9596 10.4102 41.5612 10.9635 42.7852 12.0703C44.0221 13.1641 44.6406 15.0326 44.6406 17.6758V30H38.3516V18.2617C38.3516 17.1159 38.1107 16.3086 37.6289 15.8398C37.1471 15.3581 36.4635 15.1172 35.5781 15.1172C34.8359 15.1172 34.1589 15.3385 33.5469 15.7812C32.9349 16.224 32.4661 16.8164 32.1406 17.5586V30H25.8516ZM48.625 30V10.8594H54.9727V30H48.625ZM48.2148 4.80469C48.2148 3.88021 48.5208 3.10547 49.1328 2.48047C49.7578 1.85547 50.6497 1.54297 51.8086 1.54297C52.9674 1.54297 53.8529 1.85547 54.4648 2.48047C55.0768 3.09245 55.3828 3.86719 55.3828 4.80469C55.3828 5.72917 55.0703 6.51042 54.4453 7.14844C53.8203 7.78646 52.9284 8.10547 51.7695 8.10547C50.6237 8.10547 49.7448 7.78646 49.1328 7.14844C48.5208 6.4974 48.2148 5.71615 48.2148 4.80469ZM58.1172 20.7227V20.0977C58.1172 17.2461 58.8659 14.9284 60.3633 13.1445C61.8607 11.3477 63.8203 10.4492 66.2422 10.4492C67.7135 10.4492 68.931 10.7096 69.8945 11.2305C70.8711 11.7383 71.6068 12.3698 72.1016 13.125H72.1406L72.1992 10.8398H78.1953V38.2812H72.0039V27.7539H72.0234C71.4766 28.5482 70.7214 29.1862 69.7578 29.668C68.7943 30.1497 67.6029 30.3906 66.1836 30.3906C63.7227 30.3906 61.763 29.4987 60.3047 27.7148C58.8464 25.918 58.1172 23.5872 58.1172 20.7227ZM64.4844 20.8203C64.4844 22.3698 64.7969 23.6133 65.4219 24.5508C66.0469 25.4753 67.0039 25.9375 68.293 25.9375C69.1914 25.9375 69.9531 25.6901 70.5781 25.1953C71.2161 24.7005 71.6654 24.1081 71.9258 23.418V17.3242C71.6523 16.6732 71.2031 16.1133 70.5781 15.6445C69.9531 15.1628 69.1914 14.9219 68.293 14.9219C67.0039 14.9219 66.0469 15.3906 65.4219 16.3281C64.7969 17.2656 64.4844 18.5026 64.4844 20.0391V20.8203ZM82.1016 23.0469V10.8594H88.3906V22.5781C88.3906 23.776 88.638 24.6094 89.1328 25.0781C89.6276 25.5469 90.3047 25.7812 91.1641 25.7812C91.9323 25.7812 92.6094 25.5534 93.1953 25.0977C93.7943 24.6289 94.2565 24.043 94.582 23.3398V10.8594H100.871V30H94.7773L94.6992 27.5781H94.6406C94.1068 28.4505 93.3255 29.1471 92.2969 29.668C91.2682 30.1888 90.0573 30.4492 88.6641 30.4492C86.724 30.4492 85.1419 29.8763 83.918 28.7305C82.707 27.5846 82.1016 25.6901 82.1016 23.0469ZM103.938 20.7031V20.0781C103.938 17.1094 104.868 14.7396 106.73 12.9688C108.592 11.1849 111.034 10.293 114.055 10.293C117.062 10.293 119.393 11.1393 121.047 12.832C122.701 14.5117 123.527 16.8359 123.527 19.8047V21.7188H107.668V18.3008H117.414V18.0273C117.414 17.0768 117.128 16.2826 116.555 15.6445C115.982 15.0065 115.135 14.6875 114.016 14.6875C112.766 14.6875 111.815 15.1432 111.164 16.0547C110.526 16.9531 110.207 18.112 110.207 19.5312V20.8594C110.207 22.487 110.552 23.763 111.242 24.6875C111.945 25.599 112.974 26.0547 114.328 26.0547C115.292 26.0547 116.105 25.8398 116.77 25.4102C117.447 24.9805 117.98 24.4401 118.371 23.7891L123.312 25.7812C122.688 27.2266 121.633 28.3789 120.148 29.2383C118.664 30.0977 116.743 30.5273 114.387 30.5273C111.105 30.5273 108.54 29.6419 106.691 27.8711C104.855 26.0872 103.938 23.6979 103.938 20.7031ZM135.148 22.207V21.0938H141.34V21.8359C141.34 23.2161 141.73 24.2448 142.512 24.9219C143.306 25.5859 144.419 25.918 145.852 25.918C147.232 25.918 148.293 25.612 149.035 25C149.79 24.375 150.168 23.5417 150.168 22.5C150.168 21.5104 149.777 20.7227 148.996 20.1367C148.215 19.5508 146.639 18.9128 144.27 18.2227C141.314 17.3372 139.12 16.1979 137.688 14.8047C136.255 13.4115 135.533 11.5755 135.52 9.29688C135.52 6.78385 136.438 4.79167 138.273 3.32031C140.109 1.83594 142.57 1.09375 145.656 1.09375C148.716 1.09375 151.177 1.8099 153.039 3.24219C154.914 4.66146 155.852 6.6276 155.852 9.14062V10.0586H149.758V9.47266C149.758 8.3138 149.413 7.40234 148.723 6.73828C148.046 6.07422 147.049 5.74219 145.734 5.74219C144.38 5.74219 143.384 6.02214 142.746 6.58203C142.121 7.12891 141.809 7.86458 141.809 8.78906C141.809 9.67448 142.206 10.3776 143 10.8984C143.807 11.4062 145.422 12.0182 147.844 12.7344C150.721 13.5547 152.87 14.6745 154.289 16.0938C155.721 17.513 156.438 19.4596 156.438 21.9336C156.438 24.6159 155.467 26.7122 153.527 28.2227C151.6 29.7201 149.055 30.4688 145.891 30.4688C142.74 30.4688 140.161 29.7721 138.156 28.3789C136.151 26.9727 135.148 24.9154 135.148 22.207ZM157.609 15.3906V10.8594H170.617V15.3906H157.609ZM160.539 24.1406V12.3242L160.656 11.9336V5.39062H166.73V23.1641C166.73 24.2969 166.9 25.0456 167.238 25.4102C167.577 25.7617 168.091 25.9375 168.781 25.9375C169.107 25.9375 169.419 25.9115 169.719 25.8594C170.018 25.7943 170.311 25.7096 170.598 25.6055V29.9414C170.259 30.0716 169.758 30.1888 169.094 30.293C168.43 30.4102 167.629 30.4688 166.691 30.4688C164.764 30.4688 163.254 29.9674 162.16 28.9648C161.079 27.9622 160.539 26.3542 160.539 24.1406ZM173.156 23.0469V10.8594H179.445V22.5781C179.445 23.776 179.693 24.6094 180.188 25.0781C180.682 25.5469 181.359 25.7812 182.219 25.7812C182.987 25.7812 183.664 25.5534 184.25 25.0977C184.849 24.6289 185.311 24.043 185.637 23.3398V10.8594H191.926V30H185.832L185.754 27.5781H185.695C185.161 28.4505 184.38 29.1471 183.352 29.668C182.323 30.1888 181.112 30.4492 179.719 30.4492C177.779 30.4492 176.197 29.8763 174.973 28.7305C173.762 27.5846 173.156 25.6901 173.156 23.0469ZM194.992 20.7227V20.0977C194.992 17.2721 195.747 14.9609 197.258 13.1641C198.781 11.3672 200.773 10.4688 203.234 10.4688C204.576 10.4688 205.721 10.6966 206.672 11.1523C207.622 11.5951 208.365 12.181 208.898 12.9102V0.878906H215.07V30H209.074L209.016 27.5H208.957C208.462 28.3073 207.72 28.9909 206.73 29.5508C205.741 30.1107 204.576 30.3906 203.234 30.3906C200.682 30.3906 198.671 29.4857 197.199 27.6758C195.728 25.8659 194.992 23.5482 194.992 20.7227ZM201.379 20.8203C201.379 22.3307 201.691 23.5612 202.316 24.5117C202.954 25.4622 203.918 25.9375 205.207 25.9375C206.092 25.9375 206.841 25.6901 207.453 25.1953C208.078 24.7005 208.527 24.1211 208.801 23.457V17.3242C208.54 16.6602 208.104 16.0938 207.492 15.625C206.88 15.1562 206.125 14.9219 205.227 14.9219C203.938 14.9219 202.974 15.3971 202.336 16.3477C201.698 17.2982 201.379 18.5286 201.379 20.0391V20.8203ZM219.211 30V10.8594H225.559V30H219.211ZM218.801 4.80469C218.801 3.88021 219.107 3.10547 219.719 2.48047C220.344 1.85547 221.236 1.54297 222.395 1.54297C223.553 1.54297 224.439 1.85547 225.051 2.48047C225.663 3.09245 225.969 3.86719 225.969 4.80469C225.969 5.72917 225.656 6.51042 225.031 7.14844C224.406 7.78646 223.514 8.10547 222.355 8.10547C221.21 8.10547 220.331 7.78646 219.719 7.14844C219.107 6.4974 218.801 5.71615 218.801 4.80469ZM228.703 20.7031V20.0781C228.703 17.1094 229.66 14.7331 231.574 12.9492C233.488 11.1654 236.008 10.2734 239.133 10.2734C242.258 10.2734 244.771 11.1654 246.672 12.9492C248.586 14.7331 249.543 17.1094 249.543 20.0781V20.7031C249.543 23.6849 248.586 26.0677 246.672 27.8516C244.771 29.6354 242.258 30.5273 239.133 30.5273C235.995 30.5273 233.469 29.6354 231.555 27.8516C229.654 26.0677 228.703 23.6849 228.703 20.7031ZM235.09 19.8047V20.957C235.09 22.5326 235.435 23.7695 236.125 24.668C236.815 25.5534 237.811 25.9961 239.113 25.9961C240.428 25.9961 241.431 25.5534 242.121 24.668C242.811 23.7695 243.156 22.5326 243.156 20.957V19.8047C243.156 18.2552 242.805 17.0443 242.102 16.1719C241.411 15.2865 240.415 14.8438 239.113 14.8438C237.824 14.8438 236.828 15.2865 236.125 16.1719C235.435 17.0443 235.09 18.2552 235.09 19.8047Z" fill="#EEEFF1"/>
</svg>
