<svg width="168" height="26" viewBox="0 0 168 26" fill="none" xmlns="http://www.w3.org/2000/svg">
<path d="M0.0880001 26V4.4C0.0880001 3.608 0.28 2.888 0.664 2.24C1.048 1.568 1.564 1.04 2.212 0.655998C2.884 0.271999 3.616 0.079999 4.408 0.079999H21.688C22.48 0.079999 23.2 0.271999 23.848 0.655998C24.52 1.04 25.048 1.568 25.432 2.24C25.816 2.888 26.008 3.608 26.008 4.4V26H23.092V16.532H3.004V26H0.0880001ZM3.004 13.616H23.092V4.4C23.092 4.016 22.948 3.692 22.66 3.428C22.396 3.14 22.072 2.996 21.688 2.996H4.408C4.024 2.996 3.688 3.14 3.4 3.428C3.136 3.692 3.004 4.016 3.004 4.4V13.616ZM37.8857 26C37.0937 26 36.3617 25.808 35.6897 25.424C35.0417 25.016 34.5137 24.488 34.1057 23.84C33.7217 23.168 33.5297 22.436 33.5297 21.644V9.476C33.5297 8.684 33.7217 7.964 34.1057 7.316C34.5137 6.644 35.0417 6.116 35.6897 5.732C36.3617 5.324 37.0937 5.12 37.8857 5.12H54.7338V8.072H37.8857C37.5017 8.072 37.1657 8.216 36.8777 8.504C36.6137 8.768 36.4817 9.092 36.4817 9.476V21.644C36.4817 22.028 36.6137 22.364 36.8777 22.652C37.1657 22.916 37.5017 23.048 37.8857 23.048H54.8057V26H37.8857ZM66.517 26C65.725 26 64.993 25.808 64.321 25.424C63.673 25.016 63.145 24.488 62.737 23.84C62.353 23.168 62.161 22.436 62.161 21.644V9.476C62.161 8.684 62.353 7.964 62.737 7.316C63.145 6.644 63.673 6.116 64.321 5.732C64.993 5.324 65.725 5.12 66.517 5.12H83.365V8.072H66.517C66.133 8.072 65.797 8.216 65.509 8.504C65.245 8.768 65.113 9.092 65.113 9.476V21.644C65.113 22.028 65.245 22.364 65.509 22.652C65.797 22.916 66.133 23.048 66.517 23.048H83.437V26H66.517ZM94.2342 26C93.4422 26 92.7102 25.808 92.0382 25.424C91.3902 25.016 90.8622 24.488 90.4542 23.84C90.0702 23.168 89.8782 22.436 89.8782 21.644V9.476C89.8782 8.684 90.0702 7.964 90.4542 7.316C90.8622 6.644 91.3902 6.116 92.0382 5.732C92.7102 5.324 93.4422 5.12 94.2342 5.12H106.762C107.578 5.12 108.31 5.324 108.958 5.732C109.63 6.116 110.158 6.644 110.542 7.316C110.95 7.964 111.154 8.684 111.154 9.476V17.036H92.8302V21.644C92.8302 22.028 92.9622 22.364 93.2262 22.652C93.5142 22.916 93.8502 23.048 94.2342 23.048H111.154V26H94.2342ZM92.8302 14.084H108.166V9.476C108.166 9.092 108.022 8.768 107.734 8.504C107.47 8.216 107.146 8.072 106.762 8.072H94.2342C93.8502 8.072 93.5142 8.216 93.2262 8.504C92.9622 8.768 92.8302 9.092 92.8302 9.476V14.084ZM122.652 26C121.86 26 121.128 25.808 120.456 25.424C119.808 25.016 119.28 24.488 118.872 23.84C118.488 23.168 118.296 22.436 118.296 21.644V21.356H121.248V21.644C121.248 22.028 121.38 22.364 121.644 22.652C121.932 22.916 122.268 23.048 122.652 23.048H135.18C135.564 23.048 135.888 22.916 136.152 22.652C136.44 22.364 136.584 22.028 136.584 21.644V18.44C136.584 18.056 136.44 17.732 136.152 17.468C135.888 17.18 135.564 17.036 135.18 17.036H122.652C121.86 17.036 121.128 16.844 120.456 16.46C119.808 16.052 119.28 15.524 118.872 14.876C118.488 14.204 118.296 13.472 118.296 12.68V9.476C118.296 8.684 118.488 7.964 118.872 7.316C119.28 6.644 119.808 6.116 120.456 5.732C121.128 5.324 121.86 5.12 122.652 5.12H135.18C135.996 5.12 136.728 5.324 137.376 5.732C138.048 6.116 138.576 6.644 138.96 7.316C139.368 7.964 139.572 8.684 139.572 9.476V9.764H136.584V9.476C136.584 9.092 136.44 8.768 136.152 8.504C135.888 8.216 135.564 8.072 135.18 8.072H122.652C122.268 8.072 121.932 8.216 121.644 8.504C121.38 8.768 121.248 9.092 121.248 9.476V12.68C121.248 13.064 121.38 13.4 121.644 13.688C121.932 13.952 122.268 14.084 122.652 14.084H135.18C135.996 14.084 136.728 14.288 137.376 14.696C138.048 15.08 138.576 15.608 138.96 16.28C139.368 16.928 139.572 17.648 139.572 18.44V21.644C139.572 22.436 139.368 23.168 138.96 23.84C138.576 24.488 138.048 25.016 137.376 25.424C136.728 25.808 135.996 26 135.18 26H122.652ZM150.932 26C150.14 26 149.408 25.808 148.736 25.424C148.088 25.016 147.56 24.488 147.152 23.84C146.768 23.168 146.576 22.436 146.576 21.644V21.356H149.528V21.644C149.528 22.028 149.66 22.364 149.924 22.652C150.212 22.916 150.548 23.048 150.932 23.048H163.46C163.844 23.048 164.168 22.916 164.432 22.652C164.72 22.364 164.864 22.028 164.864 21.644V18.44C164.864 18.056 164.72 17.732 164.432 17.468C164.168 17.18 163.844 17.036 163.46 17.036H150.932C150.14 17.036 149.408 16.844 148.736 16.46C148.088 16.052 147.56 15.524 147.152 14.876C146.768 14.204 146.576 13.472 146.576 12.68V9.476C146.576 8.684 146.768 7.964 147.152 7.316C147.56 6.644 148.088 6.116 148.736 5.732C149.408 5.324 150.14 5.12 150.932 5.12H163.46C164.276 5.12 165.008 5.324 165.656 5.732C166.328 6.116 166.856 6.644 167.24 7.316C167.648 7.964 167.852 8.684 167.852 9.476V9.764H164.864V9.476C164.864 9.092 164.72 8.768 164.432 8.504C164.168 8.216 163.844 8.072 163.46 8.072H150.932C150.548 8.072 150.212 8.216 149.924 8.504C149.66 8.768 149.528 9.092 149.528 9.476V12.68C149.528 13.064 149.66 13.4 149.924 13.688C150.212 13.952 150.548 14.084 150.932 14.084H163.46C164.276 14.084 165.008 14.288 165.656 14.696C166.328 15.08 166.856 15.608 167.24 16.28C167.648 16.928 167.852 17.648 167.852 18.44V21.644C167.852 22.436 167.648 23.168 167.24 23.84C166.856 24.488 166.328 25.016 165.656 25.424C165.008 25.808 164.276 26 163.46 26H150.932Z" fill="#48E4D1"/>
</svg>
