<svg width="102" height="27" viewBox="0 0 102 27" fill="none" xmlns="http://www.w3.org/2000/svg">
<path d="M1.008 26L0.336 22.928C3.152 20.3467 5.50933 18.1387 7.408 16.304C9.30667 14.4693 10.7253 12.8587 11.664 11.472C12.624 10.064 13.104 8.74133 13.104 7.504C13.104 6.33067 12.7627 5.41333 12.08 4.752C11.4187 4.09067 10.4267 3.76 9.104 3.76C7.93067 3.76 6.84267 4.05866 5.84 4.656C4.85867 5.25333 4.08 6.10667 3.504 7.216L1.136 6C1.41333 4.976 1.91467 4.048 2.64 3.216C3.36533 2.36267 4.29333 1.69067 5.424 1.2C6.576 0.687999 7.90933 0.431999 9.424 0.431999C12.1973 0.431999 14.2773 1.05067 15.664 2.288C17.0507 3.504 17.744 5.14667 17.744 7.216C17.744 8.53867 17.456 9.79733 16.88 10.992C16.304 12.1653 15.4507 13.3493 14.32 14.544C13.2107 15.7173 11.8347 16.9653 10.192 18.288C8.54933 19.6107 6.66133 21.0933 4.528 22.736L18.128 21.872V26H1.008ZM36.7338 26.576C35.0058 26.576 33.4271 26.0533 31.9978 25.008C30.5684 23.9627 29.4271 22.4587 28.5738 20.496C27.7418 18.5333 27.3258 16.1973 27.3258 13.488C27.3258 11.632 27.5711 9.91467 28.0618 8.336C28.5524 6.75733 29.2244 5.38133 30.0778 4.208C30.9311 3.01333 31.9231 2.08533 33.0538 1.424C34.2058 0.762666 35.4324 0.431999 36.7338 0.431999C38.0351 0.431999 39.2511 0.762666 40.3818 1.424C41.5338 2.064 42.5364 2.97067 43.3898 4.144C44.2644 5.31733 44.9471 6.704 45.4378 8.304C45.9284 9.88267 46.1738 11.6107 46.1738 13.488C46.1738 15.4507 45.9284 17.232 45.4378 18.832C44.9471 20.432 44.2644 21.8187 43.3898 22.992C42.5364 24.144 41.5338 25.0293 40.3818 25.648C39.2511 26.2667 38.0351 26.576 36.7338 26.576ZM36.7338 23.216C37.7791 23.216 38.6751 22.8 39.4218 21.968C40.1684 21.1147 40.7444 19.9627 41.1498 18.512C41.5551 17.04 41.7578 15.3653 41.7578 13.488C41.7578 11.7173 41.5551 10.1067 41.1498 8.656C40.7444 7.184 40.1684 6.01067 39.4218 5.136C38.6751 4.26133 37.7791 3.824 36.7338 3.824C35.6884 3.824 34.7924 4.26133 34.0458 5.136C33.2991 5.98933 32.7231 7.152 32.3178 8.624C31.9338 10.0747 31.7418 11.696 31.7418 13.488C31.7418 15.3653 31.9338 17.04 32.3178 18.512C32.7231 19.9627 33.2991 21.1147 34.0458 21.968C34.7924 22.8 35.6884 23.216 36.7338 23.216ZM56.3955 26L55.7235 22.928C58.5395 20.3467 60.8968 18.1387 62.7955 16.304C64.6942 14.4693 66.1128 12.8587 67.0515 11.472C68.0115 10.064 68.4915 8.74133 68.4915 7.504C68.4915 6.33067 68.1502 5.41333 67.4675 4.752C66.8062 4.09067 65.8142 3.76 64.4915 3.76C63.3182 3.76 62.2302 4.05866 61.2275 4.656C60.2462 5.25333 59.4675 6.10667 58.8915 7.216L56.5235 6C56.8008 4.976 57.3022 4.048 58.0275 3.216C58.7528 2.36267 59.6808 1.69067 60.8115 1.2C61.9635 0.687999 63.2968 0.431999 64.8115 0.431999C67.5848 0.431999 69.6648 1.05067 71.0515 2.288C72.4382 3.504 73.1315 5.14667 73.1315 7.216C73.1315 8.53867 72.8435 9.79733 72.2675 10.992C71.6915 12.1653 70.8382 13.3493 69.7075 14.544C68.5982 15.7173 67.2222 16.9653 65.5795 18.288C63.9368 19.6107 62.0488 21.0933 59.9155 22.736L73.5155 21.872V26H56.3955ZM88.2813 14.448L87.6733 11.664C87.9506 11.6427 88.3133 11.6213 88.7613 11.6C89.2093 11.5573 89.6573 11.5147 90.1053 11.472C90.5533 11.408 90.9159 11.344 91.1933 11.28C92.5159 10.9813 93.5933 10.5227 94.4253 9.904C95.2573 9.264 95.6733 8.4 95.6733 7.312C95.6733 6.18133 95.3426 5.28533 94.6813 4.624C94.0413 3.96266 93.0173 3.632 91.6093 3.632C90.1799 3.632 89.0066 3.92 88.0893 4.496C87.1719 5.072 86.4039 5.82933 85.7853 6.768L83.4813 5.712C83.7799 4.79467 84.2813 3.94133 84.9853 3.152C85.6893 2.34133 86.6279 1.69067 87.8013 1.2C88.9959 0.687999 90.4466 0.431999 92.1533 0.431999C93.8599 0.431999 95.3106 0.719999 96.5053 1.296C97.7213 1.85067 98.6386 2.61867 99.2573 3.6C99.8973 4.56 100.217 5.648 100.217 6.864C100.217 8.10133 99.8333 9.264 99.0653 10.352C98.2973 11.44 97.1559 12.1653 95.6413 12.528C96.6866 12.656 97.6253 13.0187 98.4573 13.616C99.3106 14.2133 99.9826 14.9813 100.473 15.92C100.985 16.8587 101.241 17.904 101.241 19.056C101.241 21.3813 100.452 23.216 98.8733 24.56C97.3159 25.904 94.9479 26.576 91.7693 26.576C89.4439 26.576 87.5346 26.1173 86.0413 25.2C84.5693 24.2613 83.3746 22.96 82.4573 21.296L84.2173 19.376C85.0279 20.6773 86.1053 21.6587 87.4493 22.32C88.7933 22.9813 90.2119 23.312 91.7053 23.312C93.2199 23.312 94.4359 22.9067 95.3533 22.096C96.2706 21.264 96.7293 20.1973 96.7293 18.896C96.7293 17.5093 96.2706 16.4213 95.3533 15.632C94.4359 14.8427 93.2199 14.448 91.7053 14.448H88.2813Z" fill="#D4E2E1"/>
</svg>
