<svg width="271" height="29" viewBox="0 0 271 29" fill="none" xmlns="http://www.w3.org/2000/svg">
<path d="M0.28 29V0.199999H6.48V11.48H23.48V0.199999H29.68V29H23.48V17.72H6.48V29H0.28ZM41.3434 29V6.12C41.3434 5.02667 41.6101 4.04 42.1434 3.16C42.6768 2.25333 43.3968 1.53333 44.3034 0.999998C45.2101 0.466665 46.1968 0.199999 47.2634 0.199999H64.1834C65.2768 0.199999 66.2634 0.466665 67.1434 0.999998C68.0501 1.53333 68.7701 2.25333 69.3034 3.16C69.8634 4.04 70.1434 5.02667 70.1434 6.12V29H63.8634V19.72H47.5434V29H41.3434ZM47.5434 13.48H63.8634V6.44H47.5434V13.48ZM87.6209 29C86.5276 29 85.5276 28.7333 84.6209 28.2C83.7409 27.6667 83.0343 26.96 82.5009 26.08C81.9676 25.1733 81.7009 24.1733 81.7009 23.08V6.12C81.7009 5.02667 81.9676 4.04 82.5009 3.16C83.0343 2.25333 83.7409 1.53333 84.6209 0.999998C85.5276 0.466665 86.5276 0.199999 87.6209 0.199999H110.421V6.44H89.2209C88.7943 6.44 88.4609 6.54667 88.2209 6.76C88.0076 6.97333 87.9009 7.30667 87.9009 7.76V21.44C87.9009 21.8667 88.0076 22.2 88.2209 22.44C88.4609 22.6533 88.7943 22.76 89.2209 22.76H110.421V29H87.6209ZM121.632 29V0.199999H127.872V11.48H133.512L142.952 0.199999H149.432V2.36L139.152 14.6L149.432 26.84V29H142.952L133.512 17.72H127.872V29H121.632ZM160.547 29V0.199999H183.387C184.48 0.199999 185.467 0.466665 186.347 0.999998C187.253 1.53333 187.973 2.25333 188.507 3.16C189.067 4.04 189.347 5.02667 189.347 6.12V23.08C189.347 24.1467 189.067 25.1333 188.507 26.04C187.973 26.9467 187.253 27.6667 186.347 28.2C185.467 28.7333 184.48 29 183.387 29H160.547ZM166.707 22.76H183.067V6.44H166.707V22.76ZM200.906 29V6.12C200.906 5.02667 201.173 4.04 201.706 3.16C202.239 2.25333 202.959 1.53333 203.866 0.999998C204.773 0.466665 205.759 0.199999 206.826 0.199999H223.746C224.839 0.199999 225.826 0.466665 226.706 0.999998C227.613 1.53333 228.333 2.25333 228.866 3.16C229.426 4.04 229.706 5.02667 229.706 6.12V29H223.426V19.72H207.106V29H200.906ZM207.106 13.48H223.426V6.44H207.106V13.48ZM251.163 29V18.24L237.843 0.199999H245.243L254.283 11.56L263.283 0.199999H270.763L257.403 18.28V29H251.163Z" fill="#48E4D1"/>
</svg>
