<svg width="228" height="22" viewBox="0 0 228 22" fill="none" xmlns="http://www.w3.org/2000/svg">
<path d="M0.476562 11.7539V0.9375H4.17969V12.0352C4.17969 13.332 4.44531 14.2422 4.97656 14.7656C5.50781 15.2812 6.21484 15.5391 7.09766 15.5391C7.97266 15.5391 8.67578 15.2773 9.20703 14.7539C9.73828 14.2305 10.0039 13.3242 10.0039 12.0352V0.9375H13.6484V11.7539C13.6484 14.0117 13.0273 15.6719 11.7852 16.7344C10.5508 17.7891 8.98438 18.3164 7.08594 18.3164C5.16406 18.3164 3.58203 17.7891 2.33984 16.7344C1.09766 15.6719 0.476562 14.0117 0.476562 11.7539ZM21.0739 18V0.9375H24.9762L30.695 11.2383C30.82 11.4805 30.9294 11.7148 31.0231 11.9414C31.1247 12.168 31.2184 12.4023 31.3044 12.6445H31.3864C31.3786 12.3789 31.3708 12.125 31.363 11.8828C31.363 11.6328 31.363 11.375 31.363 11.1094V0.9375H34.5622V18H30.6247L24.9294 7.75781C24.8044 7.51562 24.6911 7.27734 24.5895 7.04297C24.4958 6.80859 24.4098 6.57031 24.3317 6.32812H24.2497C24.2653 6.59375 24.2731 6.85938 24.2731 7.125C24.2809 7.38281 24.2848 7.64453 24.2848 7.91016V18H21.0739ZM42.14 18V0.9375H45.8783V18H42.14ZM52.8819 9.98438V8.95312C52.8819 6.19531 53.5811 4.11719 54.9795 2.71875C56.378 1.32031 58.1787 0.621094 60.3819 0.621094C62.585 0.621094 64.3858 1.32031 65.7842 2.71875C67.1827 4.11719 67.8819 6.19531 67.8819 8.95312V9.98438C67.8819 12.7344 67.1827 14.8125 65.7842 16.2188C64.3858 17.6172 62.585 18.3164 60.3819 18.3164C58.1787 18.3164 56.378 17.6172 54.9795 16.2188C53.5811 14.8125 52.8819 12.7344 52.8819 9.98438ZM56.7022 10.4648C56.7022 12.1836 57.0342 13.4609 57.6983 14.2969C58.3623 15.1328 59.2569 15.5508 60.3819 15.5508C61.5069 15.5508 62.4014 15.1328 63.0655 14.2969C63.7295 13.4609 64.0616 12.1836 64.0616 10.4648V8.47266C64.0616 6.75391 63.7295 5.48047 63.0655 4.65234C62.4014 3.82422 61.5069 3.41016 60.3819 3.41016C59.2569 3.41016 58.3623 3.82422 57.6983 4.65234C57.0342 5.48047 56.7022 6.75391 56.7022 8.47266V10.4648ZM65.503 21.3047L60.9678 17.4961L63.1709 15.1172L67.7178 18.8555L65.503 21.3047ZM74.7566 11.7539V0.9375H78.4597V12.0352C78.4597 13.332 78.7253 14.2422 79.2566 14.7656C79.7878 15.2812 80.4948 15.5391 81.3777 15.5391C82.2527 15.5391 82.9558 15.2773 83.487 14.7539C84.0183 14.2305 84.2839 13.3242 84.2839 12.0352V0.9375H87.9284V11.7539C87.9284 14.0117 87.3073 15.6719 86.0652 16.7344C84.8308 17.7891 83.2644 18.3164 81.3659 18.3164C79.4441 18.3164 77.862 17.7891 76.6198 16.7344C75.3777 15.6719 74.7566 14.0117 74.7566 11.7539ZM95.3539 18V0.9375H106.733V3.79688H99.0219V7.88672H105.678V10.6172H99.0219V15.1758H106.862V18H95.3539ZM122.72 13.2188V12.7734H126.412V13.1133C126.404 13.9414 126.658 14.5625 127.174 14.9766C127.689 15.3906 128.408 15.5977 129.33 15.5977C130.236 15.5977 130.931 15.4062 131.416 15.0234C131.908 14.6406 132.154 14.1289 132.154 13.4883C132.154 12.8477 131.912 12.3477 131.427 11.9883C130.951 11.6289 129.927 11.2383 128.357 10.8164C126.576 10.3242 125.232 9.67188 124.326 8.85938C123.427 8.04688 122.974 6.94922 122.967 5.56641C122.967 4.05859 123.533 2.85938 124.666 1.96875C125.799 1.07031 127.314 0.621094 129.213 0.621094C131.111 0.621094 132.635 1.07031 133.783 1.96875C134.931 2.86719 135.506 4.08203 135.506 5.61328V6.01172H131.885V5.71875C131.885 5.00781 131.662 4.44141 131.217 4.01953C130.771 3.58984 130.115 3.375 129.248 3.375C128.365 3.375 127.717 3.54688 127.302 3.89062C126.888 4.23438 126.681 4.69531 126.681 5.27344C126.681 5.83594 126.916 6.27344 127.385 6.58594C127.861 6.89062 128.888 7.25781 130.467 7.6875C132.209 8.17188 133.541 8.83203 134.463 9.66797C135.385 10.4961 135.849 11.6719 135.857 13.1953C135.857 14.8125 135.26 16.0703 134.064 16.9688C132.877 17.8672 131.302 18.3164 129.342 18.3164C127.396 18.3164 125.806 17.8828 124.572 17.0156C123.338 16.1484 122.72 14.8828 122.72 13.2188ZM141.115 3.79688V0.9375H154.72V3.79688H149.787V18H146.048V3.79688H141.115ZM160.739 11.7539V0.9375H164.443V12.0352C164.443 13.332 164.708 14.2422 165.239 14.7656C165.771 15.2812 166.478 15.5391 167.36 15.5391C168.235 15.5391 168.939 15.2773 169.47 14.7539C170.001 14.2305 170.267 13.3242 170.267 12.0352V0.9375H173.911V11.7539C173.911 14.0117 173.29 15.6719 172.048 16.7344C170.814 17.7891 169.247 18.3164 167.349 18.3164C165.427 18.3164 163.845 17.7891 162.603 16.7344C161.36 15.6719 160.739 14.0117 160.739 11.7539ZM181.337 18V0.9375H187.126C189.391 0.9375 191.259 1.64062 192.727 3.04688C194.204 4.45312 194.942 6.41797 194.942 8.94141V9.97266C194.942 12.4961 194.208 14.4648 192.739 15.8789C191.27 17.293 189.399 18 187.126 18H181.337ZM185.016 15.2812H186.985C188.251 15.2812 189.262 14.8516 190.02 13.9922C190.778 13.1328 191.157 11.8594 191.157 10.1719V8.77734C191.157 7.08203 190.774 5.8125 190.009 4.96875C189.251 4.11719 188.243 3.69141 186.985 3.69141H185.016V15.2812ZM201.934 18V0.9375H205.672V18H201.934ZM212.676 9.98438V8.95312C212.676 6.1875 213.371 4.10938 214.762 2.71875C216.16 1.32031 217.961 0.621094 220.164 0.621094C222.367 0.621094 224.172 1.32031 225.578 2.71875C226.985 4.10938 227.688 6.1875 227.688 8.95312V9.98438C227.688 12.75 226.985 14.832 225.578 16.2305C224.172 17.6211 222.367 18.3164 220.164 18.3164C217.961 18.3164 216.16 17.6211 214.762 16.2305C213.371 14.832 212.676 12.75 212.676 9.98438ZM216.496 10.5117C216.496 12.2305 216.824 13.5 217.481 14.3203C218.145 15.1406 219.039 15.5508 220.164 15.5508C221.289 15.5508 222.188 15.1406 222.86 14.3203C223.531 13.5 223.867 12.2305 223.867 10.5117V8.4375C223.867 6.71094 223.531 5.44141 222.86 4.62891C222.188 3.81641 221.289 3.41016 220.164 3.41016C219.039 3.41016 218.145 3.81641 217.481 4.62891C216.824 5.44141 216.496 6.71094 216.496 8.4375V10.5117Z" fill="#EEEFF1"/>
</svg>
