<svg width="813" height="87" viewBox="0 0 813 87" fill="none"
  xmlns="http://www.w3.org/2000/svg">
  <path d="M0.84 87V0.599997H19.44V34.44H70.44V0.599997H89.04V87H70.44V53.16H19.44V87H0.84ZM124.03 87V18.36C124.03 15.08 124.83 12.12 126.43 9.48C128.03 6.76 130.19 4.6 132.91 2.99999C135.63 1.4 138.59 0.599997 141.79 0.599997H192.55C195.83 0.599997 198.79 1.4 201.43 2.99999C204.15 4.6 206.31 6.76 207.91 9.48C209.59 12.12 210.43 15.08 210.43 18.36V87H191.59V59.16H142.63V87H124.03ZM142.63 40.44H191.59V19.32H142.63V40.44ZM262.863 87C259.583 87 256.583 86.2 253.863 84.6C251.223 83 249.103 80.88 247.503 78.24C245.903 75.52 245.103 72.52 245.103 69.24V18.36C245.103 15.08 245.903 12.12 247.503 9.48C249.103 6.76 251.223 4.6 253.863 2.99999C256.583 1.4 259.583 0.599997 262.863 0.599997H331.263V19.32H267.663C266.383 19.32 265.383 19.64 264.663 20.28C264.023 20.92 263.703 21.92 263.703 23.28V64.32C263.703 65.6 264.023 66.6 264.663 67.32C265.383 67.96 266.383 68.28 267.663 68.28H331.263V87H262.863ZM364.895 87V0.599997H383.615V34.44H400.535L428.855 0.599997H448.295V7.08L417.455 43.8L448.295 80.52V87H428.855L400.535 53.16H383.615V87H364.895ZM481.64 87V0.599997H550.16C553.44 0.599997 556.4 1.4 559.04 2.99999C561.76 4.6 563.92 6.76 565.52 9.48C567.2 12.12 568.04 15.08 568.04 18.36V69.24C568.04 72.44 567.2 75.4 565.52 78.12C563.92 80.84 561.76 83 559.04 84.6C556.4 86.2 553.44 87 550.16 87H481.64ZM500.12 68.28H549.2V19.32H500.12V68.28ZM602.718 87V18.36C602.718 15.08 603.518 12.12 605.118 9.48C606.718 6.76 608.878 4.6 611.598 2.99999C614.318 1.4 617.278 0.599997 620.478 0.599997H671.238C674.518 0.599997 677.478 1.4 680.118 2.99999C682.838 4.6 684.998 6.76 686.598 9.48C688.278 12.12 689.118 15.08 689.118 18.36V87H670.278V59.16H621.318V87H602.718ZM621.318 40.44H670.278V19.32H621.318V40.44ZM753.489 87V54.72L713.529 0.599997H735.729L762.849 34.68L789.849 0.599997H812.289L772.209 54.84V87H753.489Z" fill="#48E4D1"/>
</svg>
