<svg width="264" height="23" viewBox="0 0 264 23" fill="none" xmlns="http://www.w3.org/2000/svg">
<path d="M26.5469 23H22.2188L15.5 16.5938H5.6875V13.4375H18.5469C19.2135 13.4375 19.8385 13.3125 20.4219 13.0625C21.0052 12.8021 21.5104 12.4531 21.9375 12.0156C22.375 11.5781 22.7188 11.0677 22.9688 10.4844C23.2188 9.89062 23.3438 9.26042 23.3438 8.59375C23.3438 7.92708 23.2188 7.30208 22.9688 6.71875C22.7188 6.13542 22.375 5.63021 21.9375 5.20312C21.5104 4.76562 21.0052 4.42188 20.4219 4.17188C19.8385 3.92188 19.2135 3.79688 18.5469 3.79688H3.89062V23H0.6875V0.59375H18.5469C19.651 0.59375 20.6875 0.807292 21.6562 1.23438C22.625 1.65104 23.4688 2.22396 24.1875 2.95312C24.9167 3.67188 25.4896 4.51562 25.9062 5.48438C26.3333 6.45312 26.5469 7.48958 26.5469 8.59375C26.5469 9.59375 26.375 10.5417 26.0312 11.4375C25.6875 12.3229 25.2135 13.1198 24.6094 13.8281C24.0052 14.526 23.2917 15.1094 22.4688 15.5781C21.6562 16.0365 20.776 16.3438 19.8281 16.5L26.5469 23ZM56.2281 23H33.0563V0.59375H56.2281V3.79688H36.2594V19.7969H56.2281V23ZM53.5094 13.4062H37.8531V10.2031H53.5094V13.4062ZM87.3469 16.5938C87.3469 17.4896 87.1802 18.3281 86.8469 19.1094C86.5135 19.8802 86.0552 20.5573 85.4719 21.1406C84.899 21.7135 84.2219 22.1667 83.4406 22.5C82.6698 22.8333 81.8417 23 80.9562 23H61.4875V19.7969H80.9562C81.4042 19.7969 81.8208 19.7135 82.2062 19.5469C82.5917 19.3802 82.925 19.151 83.2062 18.8594C83.4979 18.5677 83.7271 18.2292 83.8937 17.8438C84.0604 17.4479 84.1437 17.0312 84.1437 16.5938C84.1437 16.1562 84.0604 15.7448 83.8937 15.3594C83.7271 14.974 83.4979 14.6354 83.2062 14.3438C82.925 14.0521 82.5917 13.8229 82.2062 13.6562C81.8208 13.4896 81.4042 13.4062 80.9562 13.4062H67.8937C67.0187 13.4062 66.1906 13.2396 65.4094 12.9062C64.6281 12.5729 63.9458 12.1198 63.3625 11.5469C62.7896 10.9635 62.3312 10.2812 61.9875 9.5C61.6542 8.71875 61.4875 7.88542 61.4875 7C61.4875 6.125 61.6542 5.29688 61.9875 4.51562C62.3312 3.73438 62.7896 3.05729 63.3625 2.48438C63.9458 1.90104 64.6281 1.44271 65.4094 1.10938C66.1906 0.765625 67.0187 0.59375 67.8937 0.59375H85.7531V3.79688H67.8937C67.4562 3.79688 67.0396 3.88021 66.6437 4.04688C66.2583 4.21354 65.9198 4.44271 65.6281 4.73438C65.3365 5.02604 65.1073 5.36979 64.9406 5.76562C64.774 6.15104 64.6906 6.5625 64.6906 7C64.6906 7.4375 64.774 7.85417 64.9406 8.25C65.1073 8.63542 65.3365 8.97396 65.6281 9.26562C65.9198 9.55729 66.2583 9.78646 66.6437 9.95312C67.0396 10.1198 67.4562 10.2031 67.8937 10.2031H80.9562C81.8417 10.2031 82.6698 10.375 83.4406 10.7188C84.2219 11.0521 84.899 11.5104 85.4719 12.0938C86.0552 12.6667 86.5135 13.3438 86.8469 14.125C87.1802 14.8958 87.3469 15.7188 87.3469 16.5938ZM117.169 23H113.966V13.4062H98.3094V10.2031H113.966V0.59375H117.169V23ZM96.7156 23H93.5125V0.59375H96.7156V23ZM148.944 0.59375L148.912 11.7969C148.912 12.8385 148.777 13.8385 148.506 14.7969C148.246 15.7448 147.871 16.6354 147.381 17.4688C146.902 18.2917 146.319 19.0469 145.631 19.7344C144.954 20.4115 144.199 20.9948 143.366 21.4844C142.543 21.9635 141.657 22.3385 140.709 22.6094C139.761 22.8698 138.772 23 137.741 23H135.381C134.35 23 133.355 22.8698 132.397 22.6094C131.449 22.3385 130.558 21.9583 129.725 21.4688C128.902 20.9792 128.152 20.3958 127.475 19.7188C126.798 19.0312 126.215 18.276 125.725 17.4531C125.246 16.6198 124.871 15.7292 124.6 14.7812C124.34 13.8229 124.209 12.8281 124.209 11.7969V0.59375H127.412V11.7969C127.412 12.901 127.621 13.9427 128.037 14.9219C128.454 15.8906 129.022 16.7396 129.741 17.4688C130.47 18.1875 131.319 18.7552 132.287 19.1719C133.256 19.5885 134.287 19.7969 135.381 19.7969H137.741C138.845 19.7969 139.881 19.5885 140.85 19.1719C141.819 18.7552 142.662 18.1875 143.381 17.4688C144.1 16.7396 144.668 15.8906 145.084 14.9219C145.501 13.9427 145.709 12.901 145.709 11.7969V0.59375H148.912H148.944ZM179.172 3.79688H159.172V23H155.969V0.59375H179.172V3.79688ZM176.422 13.4062H160.766V10.2031H176.422V13.4062ZM208.009 3.79688H188.009V23H184.806V0.59375H208.009V3.79688ZM205.259 13.4062H189.603V10.2031H205.259V13.4062ZM235.05 23H213.644V0.59375H216.847V19.7969H235.05V23ZM263.653 23H240.481V0.59375H263.653V3.79688H243.684V19.7969H263.653V23ZM260.934 13.4062H245.278V10.2031H260.934V13.4062Z" fill="#D4E2E1"/>
<path d="M26.5469 23V24H29.0187L27.2422 22.2813L26.5469 23ZM22.2188 23L21.5287 23.7237L21.8184 24H22.2188V23ZM15.5 16.5938L16.1901 15.87L15.9003 15.5938H15.5V16.5938ZM5.6875 16.5938H4.6875V17.5938H5.6875V16.5938ZM5.6875 13.4375V12.4375H4.6875V13.4375H5.6875ZM20.4219 13.0625L20.8158 13.9816L20.8227 13.9787L20.8295 13.9756L20.4219 13.0625ZM21.9375 12.0156L21.2303 11.3085L21.2219 11.3171L21.9375 12.0156ZM22.9688 10.4844L23.8879 10.8783L23.8904 10.8724L22.9688 10.4844ZM22.9688 6.71875L23.8879 6.32483L22.9688 6.71875ZM21.9375 5.20312L21.2219 5.90166L21.2303 5.91028L21.239 5.9187L21.9375 5.20312ZM3.89062 3.79688V2.79688H2.89062V3.79688H3.89062ZM3.89062 23V24H4.89062V23H3.89062ZM0.6875 23H-0.3125V24H0.6875V23ZM0.6875 0.59375V-0.40625H-0.3125V0.59375H0.6875ZM21.6562 1.23438L21.2528 2.14944L21.2611 2.15301L21.6562 1.23438ZM24.1875 2.95312L23.4753 3.65513L23.4804 3.66025L23.4855 3.6653L24.1875 2.95312ZM25.9062 5.48438L24.9876 5.8795L24.9912 5.88777L25.9062 5.48438ZM26.0312 11.4375L26.9635 11.7994L26.9649 11.7958L26.0312 11.4375ZM24.6094 13.8281L25.3655 14.4826L25.3702 14.4771L24.6094 13.8281ZM22.4688 15.5781L22.9601 16.4491L22.9637 16.447L22.4688 15.5781ZM19.8281 16.5L19.6655 15.5133L17.7042 15.8366L19.1328 17.2187L19.8281 16.5ZM26.5469 22H22.2188V24H26.5469V22ZM22.9088 22.2763L16.1901 15.87L14.8099 17.3175L21.5287 23.7237L22.9088 22.2763ZM15.5 15.5938H5.6875V17.5938H15.5V15.5938ZM6.6875 16.5938V13.4375H4.6875V16.5938H6.6875ZM5.6875 14.4375H18.5469V12.4375H5.6875V14.4375ZM18.5469 14.4375C19.342 14.4375 20.1017 14.2877 20.8158 13.9816L20.028 12.1434C19.5753 12.3373 19.0851 12.4375 18.5469 12.4375V14.4375ZM20.8295 13.9756C21.5229 13.6661 22.1339 13.246 22.6531 12.7142L21.2219 11.3171C20.8869 11.6602 20.4875 11.9381 20.0142 12.1494L20.8295 13.9756ZM22.6446 12.7227C23.1744 12.1929 23.5891 11.5755 23.8879 10.8783L22.0496 10.0905C21.8484 10.5599 21.5756 10.9633 21.2304 11.3085L22.6446 12.7227ZM23.8904 10.8724C24.1939 10.1516 24.3438 9.38896 24.3438 8.59375H22.3438C22.3438 9.13188 22.2436 9.6297 22.0471 10.0963L23.8904 10.8724ZM24.3438 8.59375C24.3438 7.79862 24.1939 7.03888 23.8879 6.32483L22.0496 7.11267C22.2436 7.56528 22.3438 8.05555 22.3438 8.59375H24.3438ZM23.8879 6.32483C23.5882 5.62552 23.171 5.00982 22.636 4.48755L21.239 5.9187C21.579 6.25059 21.8493 6.64532 22.0496 7.11267L23.8879 6.32483ZM22.6531 4.50459C22.1308 3.96958 21.5151 3.55244 20.8158 3.25273L20.028 5.09102C20.4953 5.29131 20.89 5.56167 21.2219 5.90166L22.6531 4.50459ZM20.8158 3.25273C20.1017 2.94671 19.342 2.79688 18.5469 2.79688V4.79688C19.0851 4.79688 19.5753 4.89704 20.028 5.09102L20.8158 3.25273ZM18.5469 2.79688H3.89062V4.79688H18.5469V2.79688ZM2.89062 3.79688V23H4.89062V3.79688H2.89062ZM3.89062 22H0.6875V24H3.89062V22ZM1.6875 23V0.59375H-0.3125V23H1.6875ZM0.6875 1.59375H18.5469V-0.40625H0.6875V1.59375ZM18.5469 1.59375C19.5182 1.59375 20.4167 1.78076 21.2529 2.1494L22.0596 0.31935C20.9583 -0.166176 19.7839 -0.40625 18.5469 -0.40625V1.59375ZM21.2611 2.15301C22.1148 2.52019 22.85 3.02075 23.4753 3.65513L24.8997 2.25112C24.0875 1.42717 23.1352 0.781896 22.0514 0.315742L21.2611 2.15301ZM23.4855 3.6653C24.1199 4.29061 24.6204 5.02579 24.9876 5.87949L26.8249 5.08926C26.3587 4.00546 25.7135 3.05314 24.8895 2.24095L23.4855 3.6653ZM24.9912 5.88777C25.3599 6.72396 25.5469 7.6224 25.5469 8.59375H27.5469C27.5469 7.35677 27.3068 6.18229 26.8213 5.08098L24.9912 5.88777ZM25.5469 8.59375C25.5469 9.47652 25.3957 10.3026 25.0976 11.0792L26.9649 11.7958C27.3543 10.7808 27.5469 9.71098 27.5469 8.59375H25.5469ZM25.099 11.0756C24.7951 11.8585 24.3784 12.558 23.8485 13.1792L25.3702 14.4771C26.0487 13.6816 26.5799 12.7873 26.9635 11.7994L25.099 11.0756ZM23.8533 13.1736C23.3253 13.7835 22.7007 14.2951 21.9738 14.7092L22.9637 16.447C23.8826 15.9236 24.6851 15.2685 25.3654 14.4826L23.8533 13.1736ZM21.9774 14.7071C21.2699 15.1063 20.5014 15.3755 19.6655 15.5133L19.9908 17.4867C21.0507 17.312 22.0426 16.9667 22.9601 16.4491L21.9774 14.7071ZM19.1328 17.2187L25.8516 23.7187L27.2422 22.2813L20.5234 15.7813L19.1328 17.2187ZM56.2281 23V24H57.2281V23H56.2281ZM33.0563 23H32.0563V24H33.0563V23ZM33.0563 0.59375V-0.40625H32.0563V0.59375H33.0563ZM56.2281 0.59375H57.2281V-0.40625H56.2281V0.59375ZM56.2281 3.79688V4.79688H57.2281V3.79688H56.2281ZM36.2594 3.79688V2.79688H35.2594V3.79688H36.2594ZM36.2594 19.7969H35.2594V20.7969H36.2594V19.7969ZM56.2281 19.7969H57.2281V18.7969H56.2281V19.7969ZM53.5094 13.4062V14.4062H54.5094V13.4062H53.5094ZM37.8531 13.4062H36.8531V14.4062H37.8531V13.4062ZM37.8531 10.2031V9.20312H36.8531V10.2031H37.8531ZM53.5094 10.2031H54.5094V9.20312H53.5094V10.2031ZM56.2281 22H33.0563V24H56.2281V22ZM34.0563 23V0.59375H32.0563V23H34.0563ZM33.0563 1.59375H56.2281V-0.40625H33.0563V1.59375ZM55.2281 0.59375V3.79688H57.2281V0.59375H55.2281ZM56.2281 2.79688H36.2594V4.79688H56.2281V2.79688ZM35.2594 3.79688V19.7969H37.2594V3.79688H35.2594ZM36.2594 20.7969H56.2281V18.7969H36.2594V20.7969ZM55.2281 19.7969V23H57.2281V19.7969H55.2281ZM53.5094 12.4062H37.8531V14.4062H53.5094V12.4062ZM38.8531 13.4062V10.2031H36.8531V13.4062H38.8531ZM37.8531 11.2031H53.5094V9.20312H37.8531V11.2031ZM52.5094 10.2031V13.4062H54.5094V10.2031H52.5094ZM86.8469 19.1094L87.7647 19.5063L87.7667 19.5018L86.8469 19.1094ZM85.4719 21.1406L86.179 21.8477L85.4719 21.1406ZM83.4406 22.5L83.0482 21.5802L83.0437 21.5821L83.4406 22.5ZM61.4875 23H60.4875V24H61.4875V23ZM61.4875 19.7969V18.7969H60.4875V19.7969H61.4875ZM83.2063 18.8594L82.4991 18.1523L82.4927 18.1587L82.4864 18.1652L83.2063 18.8594ZM83.8938 17.8438L84.8116 18.2407L84.8154 18.2318L83.8938 17.8438ZM83.8938 15.3594L84.8116 14.9625L83.8938 15.3594ZM83.2063 14.3438L82.4864 15.0379L82.4927 15.0444L82.4991 15.0509L83.2063 14.3438ZM63.3625 11.5469L62.649 12.2476L62.6554 12.254L62.6618 12.2603L63.3625 11.5469ZM61.9875 9.5L61.0677 9.89246L61.0722 9.90274L61.9875 9.5ZM61.9875 4.51562L61.0721 4.11286L61.0677 4.12319L61.9875 4.51562ZM63.3625 2.48438L62.6554 1.77727L63.3625 2.48438ZM65.4094 1.10938L65.8018 2.02921L65.8121 2.02469L65.4094 1.10938ZM85.7531 0.59375H86.7531V-0.40625H85.7531V0.59375ZM85.7531 3.79688V4.79688H86.7531V3.79688H85.7531ZM66.6438 4.04688L66.2557 3.1252L66.2468 3.12902L66.6438 4.04688ZM64.9406 5.76562L65.8585 6.16255L65.8623 6.15368L64.9406 5.76562ZM64.9406 8.25L64.0189 8.63807L64.0228 8.64691L64.9406 8.25ZM66.6438 9.95312L66.2468 10.871L66.2557 10.8748L66.6438 9.95312ZM83.4406 10.7188L83.0333 11.6321L83.0407 11.6353L83.0482 11.6385L83.4406 10.7188ZM85.4719 12.0938L84.7584 12.7945L84.7647 12.8009L84.7712 12.8072L85.4719 12.0938ZM86.8469 14.125L85.9271 14.5174L85.929 14.5219L86.8469 14.125ZM86.3469 16.5938C86.3469 17.3622 86.2046 18.0665 85.9271 18.7169L87.7667 19.5018C88.1558 18.5898 88.3469 17.617 88.3469 16.5938H86.3469ZM85.929 18.7125C85.6448 19.3697 85.2573 19.941 84.7648 20.4335L86.179 21.8477C86.8531 21.1736 87.3823 20.3908 87.7647 19.5063L85.929 18.7125ZM84.7648 20.4335C84.2865 20.9118 83.7177 21.2946 83.0482 21.5802L83.8331 23.4198C84.7261 23.0388 85.5114 22.5153 86.179 21.8477L84.7648 20.4335ZM83.0437 21.5821C82.4049 21.8584 81.7127 22 80.9563 22V24C81.9706 24 82.9346 23.8083 83.8375 23.4179L83.0437 21.5821ZM80.9563 22H61.4875V24H80.9563V22ZM62.4875 23V19.7969H60.4875V23H62.4875ZM61.4875 20.7969H80.9563V18.7969H61.4875V20.7969ZM80.9563 20.7969C81.5314 20.7969 82.0842 20.6891 82.6032 20.4647L81.8093 18.629C81.5574 18.7379 81.2769 18.7969 80.9563 18.7969V20.7969ZM82.6032 20.4647C83.1055 20.2475 83.5497 19.9438 83.9261 19.5535L82.4864 18.1652C82.3003 18.3582 82.0779 18.5129 81.8093 18.629L82.6032 20.4647ZM83.9134 19.5665C84.2958 19.184 84.5958 18.7397 84.8116 18.2407L82.9759 17.4468C82.8584 17.7186 82.7 17.9514 82.4991 18.1523L83.9134 19.5665ZM84.8154 18.2318C85.0348 17.7108 85.1438 17.162 85.1438 16.5938H83.1438C83.1438 16.9005 83.0861 17.185 82.9721 17.4557L84.8154 18.2318ZM85.1438 16.5938C85.1438 16.0256 85.0347 15.4784 84.8116 14.9625L82.9759 15.7563C83.0861 16.0111 83.1438 16.2869 83.1438 16.5938H85.1438ZM84.8116 14.9625C84.5958 14.4634 84.2958 14.0191 83.9134 13.6366L82.4991 15.0509C82.7 15.2517 82.8584 15.4845 82.9759 15.7563L84.8116 14.9625ZM83.9261 13.6496C83.5497 13.2593 83.1055 12.9556 82.6032 12.7384L81.8093 14.5741C82.0779 14.6902 82.3003 14.8449 82.4864 15.0379L83.9261 13.6496ZM82.6032 12.7384C82.0842 12.514 81.5314 12.4062 80.9563 12.4062V14.4062C81.2769 14.4062 81.5574 14.4652 81.8093 14.5741L82.6032 12.7384ZM80.9563 12.4062H67.8938V14.4062H80.9563V12.4062ZM67.8938 12.4062C67.1495 12.4062 66.4552 12.2653 65.8018 11.9865L65.0169 13.826C65.926 14.2139 66.888 14.4062 67.8938 14.4062V12.4062ZM65.8018 11.9865C65.1308 11.7002 64.5541 11.3156 64.0632 10.8334L62.6618 12.2603C63.3376 12.924 64.1255 13.4457 65.0169 13.826L65.8018 11.9865ZM64.076 10.8462C63.5915 10.3529 63.2 9.77273 62.9028 9.09726L61.0722 9.90274C61.4625 10.7898 61.9877 11.5742 62.649 12.2476L64.076 10.8462ZM62.9073 9.10756C62.6291 8.45563 62.4875 7.75637 62.4875 7H60.4875C60.4875 8.01446 60.6792 8.98187 61.0677 9.89244L62.9073 9.10756ZM62.4875 7C62.4875 6.25572 62.6285 5.56148 62.9073 4.90806L61.0677 4.12319C60.6798 5.03227 60.4875 5.99428 60.4875 7H62.4875ZM62.9028 4.91836C63.1993 4.24446 63.589 3.6721 64.0696 3.19148L62.6554 1.77727C61.9902 2.44248 61.4632 3.22429 61.0722 4.11289L62.9028 4.91836ZM64.0696 3.19148C64.5599 2.70118 65.1345 2.31386 65.8018 2.02915L65.0169 0.189597C64.1217 0.571553 63.3318 1.1009 62.6554 1.77727L64.0696 3.19148ZM65.8121 2.02469C66.4632 1.73821 67.1538 1.59375 67.8938 1.59375V-0.40625C66.8837 -0.40625 65.918 -0.20696 65.0066 0.19406L65.8121 2.02469ZM67.8938 1.59375H85.7531V-0.40625H67.8938V1.59375ZM84.7531 0.59375V3.79688H86.7531V0.59375H84.7531ZM85.7531 2.79688H67.8938V4.79688H85.7531V2.79688ZM67.8938 2.79688C67.3255 2.79688 66.7767 2.90587 66.2557 3.12524L67.0318 4.96851C67.3025 4.85454 67.587 4.79688 67.8938 4.79688V2.79688ZM66.2468 3.12902C65.7478 3.34482 65.3035 3.64479 64.921 4.02727L66.3352 5.44148C66.5361 5.24063 66.7689 5.08226 67.0407 4.96473L66.2468 3.12902ZM64.921 4.02727C64.5341 4.41417 64.2337 4.86752 64.019 5.37757L65.8623 6.15368C65.9808 5.87207 66.1388 5.63791 66.3352 5.44148L64.921 4.02727ZM64.0228 5.36871C63.7996 5.88469 63.6906 6.43182 63.6906 7H65.6906C65.6906 6.69318 65.7483 6.41739 65.8585 6.16254L64.0228 5.36871ZM63.6906 7C63.6906 7.56823 63.7996 8.11706 64.019 8.63806L65.8623 7.86194C65.7483 7.59128 65.6906 7.30677 65.6906 7H63.6906ZM64.0228 8.64691C64.2386 9.14596 64.5385 9.59025 64.921 9.97273L66.3352 8.55852C66.1344 8.35766 65.976 8.12487 65.8585 7.85309L64.0228 8.64691ZM64.921 9.97273C65.3035 10.3552 65.7478 10.6552 66.2468 10.871L67.0407 9.03527C66.7689 8.91774 66.5361 8.75937 66.3352 8.55852L64.921 9.97273ZM66.2557 10.8748C66.7767 11.0941 67.3255 11.2031 67.8938 11.2031V9.20312C67.587 9.20312 67.3025 9.14545 67.0318 9.03149L66.2557 10.8748ZM67.8938 11.2031H80.9563V9.20312H67.8938V11.2031ZM80.9563 11.2031C81.7084 11.2031 82.3969 11.3483 83.0333 11.6321L83.8479 9.80545C82.9426 9.40174 81.975 9.20312 80.9563 9.20312V11.2031ZM83.0482 11.6385C83.7139 11.9226 84.2807 12.3081 84.7584 12.7945L86.1853 11.393C85.5172 10.7128 84.7299 10.1816 83.8331 9.79897L83.0482 11.6385ZM84.7712 12.8072C85.2576 13.2849 85.6431 13.8517 85.9271 14.5174L87.7667 13.7326C87.384 12.8358 86.8529 12.0484 86.1726 11.3803L84.7712 12.8072ZM85.929 14.5219C86.2059 15.1622 86.3469 15.8494 86.3469 16.5938H88.3469C88.3469 15.5881 88.1545 14.6295 87.7647 13.7281L85.929 14.5219ZM117.169 23V24H118.169V23H117.169ZM113.966 23H112.966V24H113.966V23ZM113.966 13.4062H114.966V12.4062H113.966V13.4062ZM98.3094 13.4062H97.3094V14.4062H98.3094V13.4062ZM98.3094 10.2031V9.20312H97.3094V10.2031H98.3094ZM113.966 10.2031V11.2031H114.966V10.2031H113.966ZM113.966 0.59375V-0.40625H112.966V0.59375H113.966ZM117.169 0.59375H118.169V-0.40625H117.169V0.59375ZM96.7156 23V24H97.7156V23H96.7156ZM93.5125 23H92.5125V24H93.5125V23ZM93.5125 0.59375V-0.40625H92.5125V0.59375H93.5125ZM96.7156 0.59375H97.7156V-0.40625H96.7156V0.59375ZM117.169 22H113.966V24H117.169V22ZM114.966 23V13.4062H112.966V23H114.966ZM113.966 12.4062H98.3094V14.4062H113.966V12.4062ZM99.3094 13.4062V10.2031H97.3094V13.4062H99.3094ZM98.3094 11.2031H113.966V9.20312H98.3094V11.2031ZM114.966 10.2031V0.59375H112.966V10.2031H114.966ZM113.966 1.59375H117.169V-0.40625H113.966V1.59375ZM116.169 0.59375V23H118.169V0.59375H116.169ZM96.7156 22H93.5125V24H96.7156V22ZM94.5125 23V0.59375H92.5125V23H94.5125ZM93.5125 1.59375H96.7156V-0.40625H93.5125V1.59375ZM95.7156 0.59375V23H97.7156V0.59375H95.7156ZM148.944 0.59375L149.944 0.596539L149.947 -0.40625H148.944V0.59375ZM148.913 11.7969L147.913 11.7941V11.7969H148.913ZM148.506 14.7969L147.544 14.5249L147.542 14.532L148.506 14.7969ZM147.381 17.4688L146.519 16.9622L146.517 16.9656L147.381 17.4688ZM145.631 19.7344L144.924 19.0273L145.631 19.7344ZM143.366 21.4844L143.869 22.3486L143.872 22.3466L143.366 21.4844ZM140.709 22.6094L140.974 23.5737L140.984 23.5709L140.709 22.6094ZM132.397 22.6094L132.122 23.571L132.135 23.5744L132.397 22.6094ZM129.725 21.4688L129.214 22.3282L129.218 22.331L129.725 21.4688ZM127.475 19.7188L126.762 20.4205L126.768 20.4259L127.475 19.7188ZM125.725 17.4531L124.858 17.9516L124.862 17.958L124.866 17.9644L125.725 17.4531ZM124.6 14.7812L123.635 15.0435L123.638 15.056L124.6 14.7812ZM124.209 0.59375V-0.40625H123.209V0.59375H124.209ZM127.413 0.59375H128.413V-0.40625H127.413V0.59375ZM128.038 14.9219L127.117 15.3134L127.119 15.317L128.038 14.9219ZM129.741 17.4688L129.028 18.1708L129.033 18.1759L129.039 18.1809L129.741 17.4688ZM132.288 19.1719L131.892 20.0905L132.288 19.1719ZM143.381 17.4688L144.088 18.1759L144.093 18.1708L143.381 17.4688ZM145.084 14.9219L146.003 15.317L146.005 15.3134L145.084 14.9219ZM145.709 0.59375V-0.40625H144.709V0.59375H145.709ZM147.944 0.590961L147.913 11.7941L149.912 11.7997L149.944 0.596539L147.944 0.590961ZM147.913 11.7969C147.913 12.7508 147.789 13.6591 147.544 14.5249L149.469 15.0688C149.766 14.018 149.913 12.9263 149.913 11.7969H147.913ZM147.542 14.532C147.304 15.3967 146.963 16.2059 146.519 16.9622L148.243 17.9753C148.778 17.065 149.187 16.0929 149.471 15.0618L147.542 14.532ZM146.517 16.9656C146.082 17.7125 145.552 18.3994 144.924 19.0273L146.338 20.4415C147.085 19.6943 147.722 18.8709 148.245 17.9719L146.517 16.9656ZM144.924 19.0273C144.308 19.6438 143.62 20.1752 142.859 20.6222L143.872 22.3466C144.778 21.8144 145.601 21.1791 146.338 20.4415L144.924 19.0273ZM142.862 20.6202C142.114 21.0561 141.305 21.399 140.435 21.6479L140.984 23.5709C142.009 23.278 142.972 22.871 143.869 22.3486L142.862 20.6202ZM140.444 21.6451C139.587 21.8807 138.687 22 137.741 22V24C138.857 24 139.936 23.8589 140.974 23.5736L140.444 21.6451ZM137.741 22H135.381V24H137.741V22ZM135.381 22C134.435 22 133.529 21.8807 132.659 21.6444L132.135 23.5744C133.182 23.8589 134.265 24 135.381 24V22ZM132.672 21.6479C131.803 21.3997 130.991 21.0525 130.232 20.6065L129.218 22.331C130.126 22.8642 131.095 23.2773 132.122 23.5709L132.672 21.6479ZM130.236 20.6093C129.485 20.1622 128.8 19.63 128.182 19.0116L126.768 20.4259C127.504 21.1616 128.319 21.7961 129.214 22.3282L130.236 20.6093ZM128.187 19.0171C127.566 18.3864 127.033 17.6951 126.584 16.9418L124.866 17.9644C125.397 18.857 126.029 19.6761 126.763 20.4204L128.187 19.0171ZM126.592 16.9547C126.154 16.1936 125.811 15.3783 125.562 14.5065L123.638 15.056C123.931 16.08 124.337 17.046 124.858 17.9516L126.592 16.9547ZM125.565 14.519C125.329 13.6494 125.209 12.743 125.209 11.7969H123.209C123.209 12.9133 123.35 13.9964 123.635 15.0435L125.565 14.519ZM125.209 11.7969V0.59375H123.209V11.7969H125.209ZM124.209 1.59375H127.413V-0.40625H124.209V1.59375ZM126.413 0.59375V11.7969H128.413V0.59375H126.413ZM126.413 11.7969C126.413 13.0304 126.646 14.2058 127.117 15.3134L128.958 14.5303C128.596 13.6796 128.413 12.7717 128.413 11.7969H126.413ZM127.119 15.317C127.583 16.3965 128.22 17.3503 129.028 18.1708L130.453 16.7667C129.824 16.1288 129.325 15.3848 128.956 14.5268L127.119 15.317ZM129.039 18.1809C129.859 18.9896 130.813 19.6262 131.892 20.0905L132.683 18.2532C131.825 17.8842 131.081 17.3854 130.443 16.7566L129.039 18.1809ZM131.892 20.0905C132.991 20.5629 134.157 20.7969 135.381 20.7969V18.7969C134.418 18.7969 133.522 18.6142 132.683 18.2532L131.892 20.0905ZM135.381 20.7969H137.741V18.7969H135.381V20.7969ZM137.741 20.7969C138.974 20.7969 140.146 20.5634 141.245 20.0905L140.455 18.2532C139.617 18.6137 138.715 18.7969 137.741 18.7969V20.7969ZM141.245 20.0905C142.326 19.6257 143.277 18.9876 144.088 18.1759L142.674 16.7616C142.048 17.3874 141.312 17.8848 140.455 18.2532L141.245 20.0905ZM144.093 18.1708C144.902 17.3503 145.539 16.3965 146.003 15.317L144.166 14.5268C143.797 15.3848 143.298 16.1288 142.669 16.7667L144.093 18.1708ZM146.005 15.3134C146.476 14.2058 146.709 13.0304 146.709 11.7969H144.709C144.709 12.7717 144.526 13.6796 144.164 14.5303L146.005 15.3134ZM146.709 11.7969V0.59375H144.709V11.7969H146.709ZM145.709 1.59375H148.913V-0.40625H145.709V1.59375ZM148.913 1.59375H148.944V-0.40625H148.913V1.59375ZM179.172 3.79688V4.79688H180.172V3.79688H179.172ZM159.172 3.79688V2.79688H158.172V3.79688H159.172ZM159.172 23V24H160.172V23H159.172ZM155.969 23H154.969V24H155.969V23ZM155.969 0.59375V-0.40625H154.969V0.59375H155.969ZM179.172 0.59375H180.172V-0.40625H179.172V0.59375ZM176.422 13.4062V14.4062H177.422V13.4062H176.422ZM160.766 13.4062H159.766V14.4062H160.766V13.4062ZM160.766 10.2031V9.20312H159.766V10.2031H160.766ZM176.422 10.2031H177.422V9.20312H176.422V10.2031ZM179.172 2.79688H159.172V4.79688H179.172V2.79688ZM158.172 3.79688V23H160.172V3.79688H158.172ZM159.172 22H155.969V24H159.172V22ZM156.969 23V0.59375H154.969V23H156.969ZM155.969 1.59375H179.172V-0.40625H155.969V1.59375ZM178.172 0.59375V3.79688H180.172V0.59375H178.172ZM176.422 12.4062H160.766V14.4062H176.422V12.4062ZM161.766 13.4062V10.2031H159.766V13.4062H161.766ZM160.766 11.2031H176.422V9.20312H160.766V11.2031ZM175.422 10.2031V13.4062H177.422V10.2031H175.422ZM208.009 3.79688V4.79688H209.009V3.79688H208.009ZM188.009 3.79688V2.79688H187.009V3.79688H188.009ZM188.009 23V24H189.009V23H188.009ZM184.806 23H183.806V24H184.806V23ZM184.806 0.59375V-0.40625H183.806V0.59375H184.806ZM208.009 0.59375H209.009V-0.40625H208.009V0.59375ZM205.259 13.4062V14.4062H206.259V13.4062H205.259ZM189.603 13.4062H188.603V14.4062H189.603V13.4062ZM189.603 10.2031V9.20312H188.603V10.2031H189.603ZM205.259 10.2031H206.259V9.20312H205.259V10.2031ZM208.009 2.79688H188.009V4.79688H208.009V2.79688ZM187.009 3.79688V23H189.009V3.79688H187.009ZM188.009 22H184.806V24H188.009V22ZM185.806 23V0.59375H183.806V23H185.806ZM184.806 1.59375H208.009V-0.40625H184.806V1.59375ZM207.009 0.59375V3.79688H209.009V0.59375H207.009ZM205.259 12.4062H189.603V14.4062H205.259V12.4062ZM190.603 13.4062V10.2031H188.603V13.4062H190.603ZM189.603 11.2031H205.259V9.20312H189.603V11.2031ZM204.259 10.2031V13.4062H206.259V10.2031H204.259ZM235.05 23V24H236.05V23H235.05ZM213.644 23H212.644V24H213.644V23ZM213.644 0.59375V-0.40625H212.644V0.59375H213.644ZM216.847 0.59375H217.847V-0.40625H216.847V0.59375ZM216.847 19.7969H215.847V20.7969H216.847V19.7969ZM235.05 19.7969H236.05V18.7969H235.05V19.7969ZM235.05 22H213.644V24H235.05V22ZM214.644 23V0.59375H212.644V23H214.644ZM213.644 1.59375H216.847V-0.40625H213.644V1.59375ZM215.847 0.59375V19.7969H217.847V0.59375H215.847ZM216.847 20.7969H235.05V18.7969H216.847V20.7969ZM234.05 19.7969V23H236.05V19.7969H234.05ZM263.653 23V24H264.653V23H263.653ZM240.481 23H239.481V24H240.481V23ZM240.481 0.59375V-0.40625H239.481V0.59375H240.481ZM263.653 0.59375H264.653V-0.40625H263.653V0.59375ZM263.653 3.79688V4.79688H264.653V3.79688H263.653ZM243.684 3.79688V2.79688H242.684V3.79688H243.684ZM243.684 19.7969H242.684V20.7969H243.684V19.7969ZM263.653 19.7969H264.653V18.7969H263.653V19.7969ZM260.934 13.4062V14.4062H261.934V13.4062H260.934ZM245.278 13.4062H244.278V14.4062H245.278V13.4062ZM245.278 10.2031V9.20312H244.278V10.2031H245.278ZM260.934 10.2031H261.934V9.20312H260.934V10.2031ZM263.653 22H240.481V24H263.653V22ZM241.481 23V0.59375H239.481V23H241.481ZM240.481 1.59375H263.653V-0.40625H240.481V1.59375ZM262.653 0.59375V3.79688H264.653V0.59375H262.653ZM263.653 2.79688H243.684V4.79688H263.653V2.79688ZM242.684 3.79688V19.7969H244.684V3.79688H242.684ZM243.684 20.7969H263.653V18.7969H243.684V20.7969ZM262.653 19.7969V23H264.653V19.7969H262.653ZM260.934 12.4062H245.278V14.4062H260.934V12.4062ZM246.278 13.4062V10.2031H244.278V13.4062H246.278ZM245.278 11.2031H260.934V9.20312H245.278V11.2031ZM259.934 10.2031V13.4062H261.934V10.2031H259.934Z" fill="#D4E2E1"/>
</svg>
