<svg width="709" height="68" viewBox="0 0 709 68" fill="none" xmlns="http://www.w3.org/2000/svg">
<path d="M0.515625 37.2578V1.125H14.1484V39.1328C14.1484 42.8568 14.7865 45.5 16.0625 47.0625C17.3385 48.599 19.1484 49.3672 21.4922 49.3672C23.8099 49.3672 25.5938 48.599 26.8438 47.0625C28.1198 45.5 28.7578 42.8568 28.7578 39.1328V1.125H42.4297V37.2578C42.4297 44.6016 40.5938 50.0312 36.9219 53.5469C33.276 57.0625 28.1849 58.8203 21.6484 58.8203C14.9557 58.8203 9.76042 57.0625 6.0625 53.5469C2.36458 50.0312 0.515625 44.6016 0.515625 37.2578ZM63.9391 58V1.125H77.7672L92.4938 32.4531C92.8583 33.3125 93.1969 34.224 93.5094 35.1875C93.8219 36.125 94.0953 37.0104 94.3297 37.8438H94.525C94.4729 36.9583 94.4469 36.0469 94.4469 35.1094C94.4729 34.1458 94.4859 33.2214 94.4859 32.3359V1.125H106.127V58H92.6891L77.4938 26.3594C77.1552 25.5521 76.8167 24.7057 76.4781 23.8203C76.1656 22.9349 75.9052 22.0755 75.6969 21.2422H75.4625C75.5406 22.1276 75.5797 22.987 75.5797 23.8203C75.5797 24.6536 75.5797 25.513 75.5797 26.3984V58H63.9391ZM127.87 58V1.125H141.777V58H127.87ZM162.27 31.125V28C162.27 18.4427 164.458 11.4375 168.833 6.98438C173.234 2.53125 178.885 0.304688 185.786 0.304688C192.687 0.304688 198.325 2.53125 202.7 6.98438C207.101 11.4375 209.302 18.4427 209.302 28V31.125C209.302 40.5521 207.101 47.5312 202.7 52.0625C198.325 56.5677 192.687 58.8203 185.786 58.8203C178.885 58.8203 173.234 56.5677 168.833 52.0625C164.458 47.5312 162.27 40.5521 162.27 31.125ZM176.528 34.9141C176.528 40.0182 177.348 43.7161 178.989 46.0078C180.63 48.2995 182.895 49.4453 185.786 49.4453C188.677 49.4453 190.942 48.2995 192.583 46.0078C194.223 43.7161 195.044 40.0182 195.044 34.9141V24.2891C195.044 19.0807 194.223 15.3828 192.583 13.1953C190.942 10.9818 188.677 9.875 185.786 9.875C182.895 9.875 180.63 10.9818 178.989 13.1953C177.348 15.3828 176.528 19.0807 176.528 24.2891V34.9141ZM201.411 67.6484L187.817 54.3281L195.083 46.3984L208.755 59.6016L201.411 67.6484ZM229.522 37.2578V1.125H243.155V39.1328C243.155 42.8568 243.793 45.5 245.069 47.0625C246.345 48.599 248.155 49.3672 250.498 49.3672C252.816 49.3672 254.6 48.599 255.85 47.0625C257.126 45.5 257.764 42.8568 257.764 39.1328V1.125H271.436V37.2578C271.436 44.6016 269.6 50.0312 265.928 53.5469C262.282 57.0625 257.191 58.8203 250.655 58.8203C243.962 58.8203 238.767 57.0625 235.069 53.5469C231.371 50.0312 229.522 44.6016 229.522 37.2578ZM292.945 58V1.125H329.703V11.9844H306.109V24.3281H326.227V33.9375H306.109V47.4922H330.25V58H292.945ZM380.222 42.8047V39.7188H392.761V41.6719C392.735 44.3802 393.438 46.3984 394.87 47.7266C396.303 49.0286 398.308 49.6797 400.886 49.6797C403.334 49.6797 405.222 49.0807 406.55 47.8828C407.878 46.6849 408.542 45.0573 408.542 43C408.542 41.2552 407.787 39.8099 406.277 38.6641C404.792 37.5182 401.967 36.2682 397.8 34.9141C391.915 32.987 387.631 30.5911 384.948 27.7266C382.266 24.8359 380.925 21.151 380.925 16.6719C380.925 11.6458 382.696 7.67448 386.237 4.75781C389.805 1.8151 394.545 0.34375 400.456 0.34375C406.342 0.34375 411.094 1.6849 414.714 4.36719C418.36 7.02344 420.183 10.8125 420.183 15.7344V18.1953H407.839V16.7891C407.839 14.5755 407.227 12.8438 406.003 11.5938C404.779 10.3438 403.021 9.71875 400.73 9.71875C398.282 9.71875 396.498 10.2656 395.378 11.3594C394.284 12.4271 393.737 13.8333 393.737 15.5781C393.737 17.1667 394.532 18.4948 396.12 19.5625C397.735 20.6302 400.743 21.8411 405.144 23.1953C410.795 24.9401 414.909 27.2708 417.487 30.1875C420.066 33.0781 421.355 36.9323 421.355 41.75C421.355 47.0885 419.48 51.2682 415.73 54.2891C412.006 57.3099 407.11 58.8203 401.042 58.8203C394.974 58.8203 389.987 57.4661 386.081 54.7578C382.175 52.0495 380.222 48.0651 380.222 42.8047ZM437.942 11.9844V1.125H481.888V11.9844H466.888V58H453.02V11.9844H437.942ZM500.194 37.2578V1.125H513.827V39.1328C513.827 42.8568 514.465 45.5 515.741 47.0625C517.017 48.599 518.827 49.3672 521.17 49.3672C523.488 49.3672 525.272 48.599 526.522 47.0625C527.798 45.5 528.436 42.8568 528.436 39.1328V1.125H542.108V37.2578C542.108 44.6016 540.272 50.0312 536.6 53.5469C532.954 57.0625 527.863 58.8203 521.327 58.8203C514.634 58.8203 509.439 57.0625 505.741 53.5469C502.043 50.0312 500.194 44.6016 500.194 37.2578ZM563.617 58V1.125H583.539C590.857 1.125 596.573 3.48177 600.688 8.19531C604.802 12.8828 606.859 19.4583 606.859 27.9219V31.0078C606.859 39.4453 604.802 46.0599 600.688 50.8516C596.599 55.6172 590.883 58 583.539 58H563.617ZM576.977 48.4688H582.211C585.674 48.4688 588.344 47.1667 590.219 44.5625C592.094 41.9583 593.031 38.0651 593.031 32.8828V26.3203C593.031 21.0599 592.068 17.2057 590.141 14.7578C588.214 12.2839 585.57 11.0339 582.211 11.0078H576.977V48.4688ZM627.392 58V1.125H641.298V58H627.392ZM661.792 31.125V28C661.792 18.3385 663.98 11.3073 668.355 6.90625C672.756 2.50521 678.407 0.304688 685.308 0.304688C692.209 0.304688 697.847 2.50521 702.222 6.90625C706.623 11.3073 708.823 18.3385 708.823 28V31.125C708.823 40.7865 706.623 47.8177 702.222 52.2188C697.847 56.6198 692.209 58.8203 685.308 58.8203C678.407 58.8203 672.756 56.6198 668.355 52.2188C663.98 47.8177 661.792 40.7865 661.792 31.125ZM676.05 34.9531C676.05 40.1615 676.87 43.8724 678.511 46.0859C680.152 48.2995 682.417 49.4062 685.308 49.4062C688.198 49.4062 690.464 48.2995 692.105 46.0859C693.745 43.8724 694.566 40.1615 694.566 34.9531V24.25C694.566 19.0677 693.745 15.3828 692.105 13.1953C690.464 10.9818 688.198 9.875 685.308 9.875C682.417 9.875 680.152 10.9818 678.511 13.1953C676.87 15.3828 676.05 19.0677 676.05 24.25V34.9531Z" fill="#EEEFF1"/>
</svg>
