<svg width="271" height="74" viewBox="0 0 271 74" fill="none" xmlns="http://www.w3.org/2000/svg">
<path d="M49.0273 63.625V73H1.37109V64.9434L24.5156 39.6992C27.0547 36.8346 29.0566 34.3607 30.5215 32.2773C31.9863 30.194 33.0117 28.3223 33.5977 26.6621C34.2161 24.9694 34.5254 23.3255 34.5254 21.7305C34.5254 19.4844 34.1022 17.515 33.2559 15.8223C32.4421 14.097 31.2376 12.7461 29.6426 11.7695C28.0475 10.7604 26.1107 10.2559 23.832 10.2559C21.1953 10.2559 18.9818 10.8255 17.1914 11.9648C15.401 13.1042 14.0501 14.6829 13.1387 16.7012C12.2272 18.6868 11.7715 20.9655 11.7715 23.5371H0.00390625C0.00390625 19.403 0.947917 15.627 2.83594 12.209C4.72396 8.75846 7.45833 6.02409 11.0391 4.00586C14.6198 1.95508 18.9329 0.929688 23.9785 0.929688C28.7311 0.929688 32.7676 1.72721 36.0879 3.32227C39.4082 4.91732 41.931 7.17969 43.6562 10.1094C45.4141 13.0391 46.293 16.5059 46.293 20.5098C46.293 22.7233 45.9349 24.9206 45.2188 27.1016C44.5026 29.2826 43.4772 31.4635 42.1426 33.6445C40.8405 35.793 39.2943 37.9577 37.5039 40.1387C35.7135 42.2871 33.7441 44.4681 31.5957 46.6816L16.2148 63.625H49.0273ZM122.045 31.4961V43.1172C122.045 48.6836 121.492 53.4362 120.385 57.375C119.311 61.2812 117.748 64.4551 115.697 66.8965C113.646 69.3379 111.189 71.1283 108.324 72.2676C105.492 73.4069 102.318 73.9766 98.8027 73.9766C96.0033 73.9766 93.3991 73.6185 90.9902 72.9023C88.6139 72.1862 86.4655 71.0632 84.5449 69.5332C82.6243 68.0033 80.9805 66.0339 79.6133 63.625C78.2786 61.1836 77.237 58.2702 76.4883 54.8848C75.7721 51.4993 75.4141 47.5768 75.4141 43.1172V31.4961C75.4141 25.8971 75.9674 21.1771 77.0742 17.3359C78.181 13.4622 79.7598 10.321 81.8105 7.91211C83.8613 5.4707 86.3027 3.69661 89.1348 2.58984C91.9993 1.48307 95.1895 0.929688 98.7051 0.929688C101.537 0.929688 104.141 1.28776 106.518 2.00391C108.926 2.6875 111.075 3.77799 112.963 5.27539C114.883 6.77279 116.511 8.72591 117.846 11.1348C119.213 13.5111 120.255 16.3919 120.971 19.7773C121.687 23.1302 122.045 27.0365 122.045 31.4961ZM110.277 44.7773V29.7383C110.277 26.9062 110.115 24.416 109.789 22.2676C109.464 20.0866 108.975 18.2474 108.324 16.75C107.706 15.2201 106.924 13.9831 105.98 13.0391C105.036 12.0625 103.962 11.3626 102.758 10.9395C101.553 10.4837 100.202 10.2559 98.7051 10.2559C96.8822 10.2559 95.2546 10.6139 93.8223 11.3301C92.39 12.0137 91.1855 13.1204 90.209 14.6504C89.2324 16.1803 88.4837 18.1986 87.9629 20.7051C87.4746 23.179 87.2305 26.1901 87.2305 29.7383V44.7773C87.2305 47.6419 87.3932 50.1647 87.7188 52.3457C88.0443 54.5267 88.5326 56.3984 89.1836 57.9609C89.8346 59.4909 90.6159 60.7604 91.5273 61.7695C92.4714 62.7461 93.5456 63.4622 94.75 63.918C95.987 64.3737 97.3379 64.6016 98.8027 64.6016C100.658 64.6016 102.302 64.2435 103.734 63.5273C105.167 62.8112 106.371 61.6719 107.348 60.1094C108.324 58.5143 109.057 56.4473 109.545 53.9082C110.033 51.3691 110.277 48.3255 110.277 44.7773ZM197.699 63.625V73H150.043V64.9434L173.188 39.6992C175.727 36.8346 177.729 34.3607 179.193 32.2773C180.658 30.194 181.684 28.3223 182.27 26.6621C182.888 24.9694 183.197 23.3255 183.197 21.7305C183.197 19.4844 182.774 17.515 181.928 15.8223C181.114 14.097 179.91 12.7461 178.314 11.7695C176.719 10.7604 174.783 10.2559 172.504 10.2559C169.867 10.2559 167.654 10.8255 165.863 11.9648C164.073 13.1042 162.722 14.6829 161.811 16.7012C160.899 18.6868 160.443 20.9655 160.443 23.5371H148.676C148.676 19.403 149.62 15.627 151.508 12.209C153.396 8.75846 156.13 6.02409 159.711 4.00586C163.292 1.95508 167.605 0.929688 172.65 0.929688C177.403 0.929688 181.439 1.72721 184.76 3.32227C188.08 4.91732 190.603 7.17969 192.328 10.1094C194.086 13.0391 194.965 16.5059 194.965 20.5098C194.965 22.7233 194.607 24.9206 193.891 27.1016C193.174 29.2826 192.149 31.4635 190.814 33.6445C189.512 35.793 187.966 37.9577 186.176 40.1387C184.385 42.2871 182.416 44.4681 180.268 46.6816L164.887 63.625H197.699ZM238.197 32.1309H245.229C247.963 32.1309 250.225 31.6589 252.016 30.7148C253.839 29.7708 255.189 28.4688 256.068 26.8086C256.947 25.1484 257.387 23.2441 257.387 21.0957C257.387 18.8496 256.98 16.929 256.166 15.334C255.385 13.7064 254.18 12.4531 252.553 11.5742C250.958 10.6953 248.923 10.2559 246.449 10.2559C244.366 10.2559 242.478 10.679 240.785 11.5254C239.125 12.3392 237.807 13.5111 236.83 15.041C235.854 16.5384 235.365 18.3288 235.365 20.4121H223.549C223.549 16.6361 224.542 13.2832 226.527 10.3535C228.513 7.42383 231.215 5.12891 234.633 3.46875C238.083 1.77604 241.957 0.929688 246.254 0.929688C250.844 0.929688 254.848 1.69466 258.266 3.22461C261.716 4.72201 264.402 6.9681 266.322 9.96289C268.243 12.9577 269.203 16.6686 269.203 21.0957C269.203 23.1139 268.731 25.1647 267.787 27.248C266.843 29.3314 265.443 31.2357 263.588 32.9609C261.732 34.6536 259.421 36.0371 256.654 37.1113C253.887 38.153 250.681 38.6738 247.035 38.6738H238.197V32.1309ZM238.197 41.3105V34.8652H247.035C251.202 34.8652 254.75 35.3535 257.68 36.3301C260.642 37.3066 263.051 38.6576 264.906 40.3828C266.762 42.0755 268.113 44.0124 268.959 46.1934C269.838 48.3743 270.277 50.6855 270.277 53.127C270.277 56.4473 269.675 59.4095 268.471 62.0137C267.299 64.5853 265.622 66.7663 263.441 68.5566C261.26 70.347 258.705 71.6979 255.775 72.6094C252.878 73.5208 249.721 73.9766 246.303 73.9766C243.243 73.9766 240.313 73.5534 237.514 72.707C234.714 71.8607 232.208 70.6074 229.994 68.9473C227.781 67.2546 226.023 65.1549 224.721 62.6484C223.451 60.1094 222.816 57.1797 222.816 53.8594H234.584C234.584 55.9753 235.072 57.847 236.049 59.4746C237.058 61.0697 238.458 62.3229 240.248 63.2344C242.071 64.1458 244.154 64.6016 246.498 64.6016C248.972 64.6016 251.104 64.1621 252.895 63.2832C254.685 62.4043 256.052 61.1022 256.996 59.377C257.973 57.6517 258.461 55.5684 258.461 53.127C258.461 50.36 257.924 48.1139 256.85 46.3887C255.775 44.6634 254.245 43.3939 252.26 42.5801C250.274 41.7337 247.93 41.3105 245.229 41.3105H238.197Z" fill="#D4E2E1"/>
</svg>
