<svg width="37" height="37" viewBox="0 0 37 37" fill="none" xmlns="http://www.w3.org/2000/svg">
<path fill-rule="evenodd" clip-rule="evenodd" d="M33.6096 34.4758C33.8049 34.6711 34.1214 34.6711 34.3167 34.4758C34.512 34.2806 34.512 33.964 34.3167 33.7687L19.2574 18.7094L35.0953 2.87157C35.2905 2.67631 35.2905 2.35973 35.0953 2.16447C34.9 1.9692 34.5834 1.9692 34.3882 2.16447L18.5503 18.0023L3.09297 2.54498C2.89771 2.34972 2.58112 2.34972 2.38586 2.54498C2.1906 2.74025 2.1906 3.05683 2.38586 3.25209L17.8432 18.7094L3.16445 33.3882C2.96919 33.5835 2.96919 33.9 3.16445 34.0953C3.35972 34.2906 3.6763 34.2906 3.87156 34.0953L18.5503 19.4165L33.6096 34.4758Z" fill="black"/>
<path d="M33.6096 34.4758L34.6703 33.4152L33.6096 34.4758ZM34.3167 33.7687L35.3774 32.7081L34.3167 33.7687ZM19.2574 18.7094L18.1968 17.6488L17.1361 18.7094L18.1968 19.7701L19.2574 18.7094ZM35.0953 2.87157L36.1559 3.93223L35.0953 2.87157ZM34.3882 2.16447L35.4488 3.22513L34.3882 2.16447ZM18.5503 18.0023L17.4897 19.063L18.5503 20.1237L19.611 19.063L18.5503 18.0023ZM3.09297 2.54498L4.15363 1.48432L3.09297 2.54498ZM2.38586 3.25209L3.44652 2.19143L2.38586 3.25209ZM17.8432 18.7094L18.9039 19.7701L19.9645 18.7094L18.9039 17.6488L17.8432 18.7094ZM3.16445 33.3882L4.22511 34.4489L3.16445 33.3882ZM3.87156 34.0953L4.93222 35.156L3.87156 34.0953ZM18.5503 19.4165L19.611 18.3559L18.5503 17.2952L17.4897 18.3559L18.5503 19.4165ZM33.256 33.4152C33.6466 33.0246 34.2797 33.0246 34.6703 33.4152L32.5489 35.5365C33.33 36.3175 34.5963 36.3175 35.3774 35.5365L33.256 33.4152ZM33.256 34.8294C32.8655 34.4388 32.8655 33.8057 33.256 33.4152L35.3774 35.5365C36.1584 34.7554 36.1584 33.4891 35.3774 32.7081L33.256 34.8294ZM18.1968 19.7701L33.256 34.8294L35.3774 32.7081L20.3181 17.6488L18.1968 19.7701ZM34.0346 1.81091L18.1968 17.6488L20.3181 19.7701L36.1559 3.93223L34.0346 1.81091ZM34.0346 3.22513C33.6441 2.8346 33.6441 2.20144 34.0346 1.81091L36.1559 3.93223C36.937 3.15118 36.937 1.88485 36.1559 1.10381L34.0346 3.22513ZM35.4488 3.22513C35.0583 3.61565 34.4252 3.61565 34.0346 3.22513L36.1559 1.10381C35.3749 0.322757 34.1086 0.322755 33.3275 1.10381L35.4488 3.22513ZM19.611 19.063L35.4488 3.22513L33.3275 1.10381L17.4897 16.9417L19.611 19.063ZM2.03231 3.60564L17.4897 19.063L19.611 16.9417L4.15363 1.48432L2.03231 3.60564ZM3.44652 3.60564C3.056 3.99617 2.42283 3.99617 2.03231 3.60564L4.15363 1.48432C3.37258 0.703276 2.10625 0.703277 1.3252 1.48432L3.44652 3.60564ZM3.44652 2.19143C3.83705 2.58196 3.83705 3.21512 3.44652 3.60564L1.3252 1.48432C0.544155 2.26537 0.544154 3.5317 1.3252 4.31275L3.44652 2.19143ZM18.9039 17.6488L3.44652 2.19143L1.3252 4.31275L16.7825 19.7701L18.9039 17.6488ZM4.22511 34.4489L18.9039 19.7701L16.7825 17.6488L2.10379 32.3275L4.22511 34.4489ZM4.22511 33.0346C4.61564 33.4252 4.61564 34.0583 4.22511 34.4489L2.10379 32.3275C1.32274 33.1086 1.32275 34.3749 2.10379 35.156L4.22511 33.0346ZM2.8109 33.0346C3.20142 32.6441 3.83459 32.6441 4.22511 33.0346L2.10379 35.156C2.88484 35.937 4.15117 35.937 4.93222 35.156L2.8109 33.0346ZM17.4897 18.3559L2.8109 33.0346L4.93222 35.156L19.611 20.4772L17.4897 18.3559ZM34.6703 33.4152L19.611 18.3559L17.4897 20.4772L32.5489 35.5365L34.6703 33.4152Z" fill="#EEEFF1"/>
</svg>
