<svg width="255" height="58" viewBox="0 0 255 58" fill="none" xmlns="http://www.w3.org/2000/svg">
<path d="M0.554688 57V0.125H19.6953L30.5156 33.0156C30.776 33.9271 31.0234 34.8125 31.2578 35.6719C31.4922 36.5312 31.7005 37.4427 31.8828 38.4062H32.0781C32.2344 37.4427 32.4297 36.5312 32.6641 35.6719C32.8984 34.8125 33.1589 33.9271 33.4453 33.0156L44.2656 0.125H63.4062V57H49.9297V23.4844C49.9297 22.599 49.9297 21.6094 49.9297 20.5156C49.9557 19.4219 50.0078 18.4323 50.0859 17.5469H49.8516C49.6953 18.4844 49.487 19.487 49.2266 20.5547C48.9661 21.5964 48.7057 22.5729 48.4453 23.4844L37.8984 57H25.5156L14.8906 23.4844C14.6302 22.5729 14.3568 21.5182 14.0703 20.3203C13.7839 19.0964 13.6016 18.1719 13.5234 17.5469H13.2891C13.3411 18.1719 13.3802 19.0964 13.4062 20.3203C13.4583 21.5443 13.4844 22.599 13.4844 23.4844V57H0.554688ZM87.7547 57V0.125H124.512V10.9844H100.919V23.3281H121.036V32.9375H100.919V46.4922H125.059V57H87.7547ZM146.361 57V0.125H160.189L174.916 31.4531C175.28 32.3125 175.619 33.224 175.931 34.1875C176.244 35.125 176.517 36.0104 176.752 36.8438H176.947C176.895 35.9583 176.869 35.0469 176.869 34.1094C176.895 33.1458 176.908 32.2214 176.908 31.3359V0.125H188.548V57H175.111L159.916 25.3594C159.577 24.5521 159.239 23.7057 158.9 22.8203C158.587 21.9349 158.327 21.0755 158.119 20.2422H157.884C157.962 21.1276 158.002 21.987 158.002 22.8203C158.002 23.6536 158.002 24.513 158.002 25.3984V57H146.361ZM212.819 36.2578V0.125H226.452V38.1328C226.452 41.8568 227.09 44.5 228.366 46.0625C229.642 47.599 231.452 48.3672 233.795 48.3672C236.113 48.3672 237.897 47.599 239.147 46.0625C240.423 44.5 241.061 41.8568 241.061 38.1328V0.125H254.733V36.2578C254.733 43.6016 252.897 49.0312 249.225 52.5469C245.579 56.0625 240.488 57.8203 233.952 57.8203C227.259 57.8203 222.064 56.0625 218.366 52.5469C214.668 49.0312 212.819 43.6016 212.819 36.2578Z" fill="#48E4D1"/>
</svg>
