<svg width="186" height="24" viewBox="0 0 186 24" fill="none" xmlns="http://www.w3.org/2000/svg">
  <path
    d="M1.24 23V5.496L0.92 2.296L1.24 0.344H7V9.016H14.968V0.344H20.728V12.376L21.048 14.584V23H14.968V14.552H7V16.472L7.32 23H1.24ZM27.2888 23L28.8248 17.592V13.528L31.1927 12.568L35.3528 0.375999H43.6408L48.7928 14.712L51.2568 19.256V23H45.5928L43.9928 17.88H34.6808L33.3048 23H27.2888ZM36.7928 12.952H42.2328L39.8008 5.624H39.1288L36.7928 12.952ZM67.7055 23.32C66.2548 23.32 64.8468 23.16 63.4815 22.84C62.1162 22.4987 60.8788 21.9013 59.7695 21.048C58.6815 20.1947 57.8175 19.0107 57.1775 17.496C56.5375 15.9813 56.2175 14.04 56.2175 11.672C56.2175 9.47467 56.5375 7.62933 57.1775 6.136C57.8175 4.64267 58.6708 3.448 59.7375 2.552C60.8042 1.656 61.9668 1.016 63.2255 0.631998C64.5055 0.226665 65.7855 0.0239983 67.0655 0.0239983C68.1535 0.0239983 69.2095 0.109332 70.2335 0.279999C71.2788 0.450666 72.0362 0.642666 72.5055 0.855999L76.0575 3.768L73.1775 8.408L67.7055 5.592C66.1908 5.592 64.9108 6.09333 63.8655 7.096C62.8202 8.07733 62.2975 9.60267 62.2975 11.672C62.2975 13.144 62.5535 14.3387 63.0655 15.256C63.5988 16.1733 64.3242 16.8453 65.2415 17.272C66.1588 17.6987 67.2042 17.912 68.3775 17.912C69.6148 17.912 70.6708 17.816 71.5455 17.624C72.4202 17.4107 73.1882 17.1653 73.8495 16.888C74.5108 16.5893 75.1402 16.3013 75.7375 16.024V21.4C74.9908 21.8693 73.9988 22.3067 72.7615 22.712C71.5242 23.1173 69.8388 23.32 67.7055 23.32ZM83.7163 23V5.592L83.0763 2.36L83.7163 0.344H89.4763V4.184L89.1562 9.912H91.0763L96.2283 0.344H102.596V2.264L96.2603 11.256L101.636 17.912L104.804 21.08V23H97.6042L91.7803 14.52L89.4763 14.84V19.16L89.7963 21.08L89.4763 23H83.7163ZM111.685 23V5.496L111.045 2.296L111.685 0.344H121.221C122.757 0.344 124.229 0.493333 125.637 0.792C127.066 1.06933 128.336 1.60266 129.445 2.392C130.576 3.18133 131.461 4.312 132.101 5.784C132.762 7.256 133.093 9.16533 133.093 11.512C133.093 13.8587 132.762 15.7893 132.101 17.304C131.44 18.7973 130.544 19.96 129.413 20.792C128.282 21.624 127.002 22.2 125.573 22.52C124.165 22.84 122.714 23 121.221 23H111.685ZM117.509 17.88H121.221C123.098 17.88 124.538 17.3893 125.541 16.408C126.544 15.4053 127.045 13.7733 127.045 11.512C127.045 9.25067 126.533 7.68267 125.509 6.808C124.506 5.912 123.077 5.464 121.221 5.464H117.509V17.88ZM137.726 23L139.262 17.592V13.528L141.63 12.568L145.79 0.375999H154.078L159.23 14.712L161.694 19.256V23H156.03L154.43 17.88H145.118L143.742 23H137.726ZM147.23 12.952H152.67L150.238 5.624H149.566L147.23 12.952ZM171.389 23V13.4L163.453 2.264V0.344H170.173L174.013 7.576H174.653L178.461 0.344H185.181V2.264L177.021 13.592L177.213 16.824V23H171.389Z"
    fill="#EEEFF1" />
</svg>