<svg width="163" height="17" viewBox="0 0 163 17" fill="none" xmlns="http://www.w3.org/2000/svg">
<path d="M17.7578 17H15.3555V9.80469H3.61328V7.40234H15.3555V0.195312H17.7578V17ZM2.41797 17H0.015625V0.195312H2.41797V17ZM42.6906 17H40.2883V12.1953H26.882V9.80469H40.2883V2.59766H31.675C30.8547 2.59766 30.0812 2.75781 29.3547 3.07812C28.6281 3.39062 27.9953 3.82031 27.4562 4.36719C26.9172 4.90625 26.4875 5.53906 26.1672 6.26562C25.8547 6.99219 25.6984 7.76953 25.6984 8.59766V17H23.2961V8.59766C23.2961 7.82422 23.3937 7.08203 23.5891 6.37109C23.7922 5.65234 24.0734 4.98438 24.4328 4.36719C24.8 3.74219 25.2375 3.17578 25.7453 2.66797C26.2609 2.15234 26.8273 1.71094 27.4445 1.34375C28.0695 0.976563 28.7375 0.695313 29.4484 0.5C30.1594 0.296875 30.9016 0.195312 31.675 0.195312H42.6906V17ZM66.1117 17H55.2953C54.1312 17 53.0727 16.7812 52.1195 16.3438C51.1664 15.9062 50.35 15.3086 49.6703 14.5508C48.9984 13.793 48.4789 12.9023 48.1117 11.8789C47.7445 10.8555 47.5609 9.76172 47.5609 8.59766C47.5609 7.44141 47.7445 6.35547 48.1117 5.33984C48.4789 4.31641 48.9984 3.42578 49.6703 2.66797C50.35 1.90234 51.1664 1.30078 52.1195 0.863281C53.0727 0.417969 54.1312 0.195312 55.2953 0.195312H66.1117V2.59766H55.2953C54.4672 2.59766 53.7211 2.75781 53.057 3.07812C52.4008 3.39062 51.8422 3.82031 51.3812 4.36719C50.9281 4.90625 50.5766 5.53906 50.3266 6.26562C50.0844 6.99219 49.9633 7.76953 49.9633 8.59766C49.9633 9.42578 50.0844 10.207 50.3266 10.9414C50.5766 11.668 50.9281 12.3047 51.3812 12.8516C51.8422 13.3906 52.4008 13.8164 53.057 14.1289C53.7211 14.4414 54.4672 14.5977 55.2953 14.5977H66.1117V17ZM90.3648 17H87.1305L78.5523 8.36328L73.232 12.1953V17H70.8297V0.195312H73.232V9.55859L86.4039 0.195312H89.9078L80.3805 7.03906L90.3648 17ZM113.88 8.59766C113.88 9.76172 113.692 10.8555 113.317 11.8789C112.95 12.9023 112.427 13.793 111.747 14.5508C111.067 15.3086 110.251 15.9062 109.298 16.3438C108.352 16.7812 107.302 17 106.145 17H97.6727V14.5977H106.145C106.973 14.5977 107.716 14.4414 108.372 14.1289C109.036 13.8164 109.595 13.3906 110.048 12.8516C110.509 12.3047 110.86 11.668 111.102 10.9414C111.352 10.207 111.477 9.42578 111.477 8.59766C111.477 7.76953 111.352 6.99219 111.102 6.26562C110.86 5.53906 110.509 4.90625 110.048 4.36719C109.595 3.82031 109.036 3.39062 108.372 3.07812C107.716 2.75781 106.973 2.59766 106.145 2.59766H96.4773V17H94.075V0.195312H106.145C107.302 0.195312 108.352 0.417969 109.298 0.863281C110.251 1.30078 111.067 1.90234 111.747 2.66797C112.427 3.42578 112.95 4.31641 113.317 5.33984C113.692 6.35547 113.88 7.44141 113.88 8.59766ZM137.852 17H135.449V12.1953H122.043V9.80469H135.449V2.59766H126.836C126.016 2.59766 125.242 2.75781 124.516 3.07812C123.789 3.39062 123.156 3.82031 122.617 4.36719C122.078 4.90625 121.648 5.53906 121.328 6.26562C121.016 6.99219 120.859 7.76953 120.859 8.59766V17H118.457V8.59766C118.457 7.82422 118.555 7.08203 118.75 6.37109C118.953 5.65234 119.234 4.98438 119.594 4.36719C119.961 3.74219 120.398 3.17578 120.906 2.66797C121.422 2.15234 121.988 1.71094 122.605 1.34375C123.23 0.976563 123.898 0.695313 124.609 0.5C125.32 0.296875 126.062 0.195312 126.836 0.195312H137.852V17ZM162.456 12.1953C162.456 12.8672 162.296 13.4961 161.976 14.082C161.663 14.6602 161.234 15.168 160.687 15.6055C160.148 16.0352 159.515 16.375 158.788 16.625C158.062 16.875 157.284 17 156.456 17H143.038V14.5977H156.456C156.948 14.5977 157.413 14.5352 157.851 14.4102C158.288 14.2852 158.667 14.1133 158.988 13.8945C159.316 13.6758 159.573 13.4219 159.761 13.1328C159.956 12.8359 160.054 12.5234 160.054 12.1953V11H149.038C148.21 11 147.429 10.8438 146.695 10.5312C145.968 10.2188 145.331 9.79297 144.784 9.25391C144.245 8.70703 143.82 8.07031 143.507 7.34375C143.195 6.60938 143.038 5.82812 143.038 5V0.195312H145.441V5C145.441 5.5 145.534 5.96875 145.722 6.40625C145.909 6.84375 146.163 7.22656 146.484 7.55469C146.812 7.875 147.195 8.12891 147.632 8.31641C148.07 8.50391 148.538 8.59766 149.038 8.59766H160.054V0.195312H162.456V12.1953Z" fill="#D4E2E1"/>
<path d="M17.7578 17V18H18.7578V17H17.7578ZM15.3555 17H14.3555V18H15.3555V17ZM15.3555 9.80469H16.3555V8.80469H15.3555V9.80469ZM3.61328 9.80469H2.61328V10.8047H3.61328V9.80469ZM3.61328 7.40234V6.40234H2.61328V7.40234H3.61328ZM15.3555 7.40234V8.40234H16.3555V7.40234H15.3555ZM15.3555 0.195312V-0.804688H14.3555V0.195312H15.3555ZM17.7578 0.195312H18.7578V-0.804688H17.7578V0.195312ZM2.41797 17V18H3.41797V17H2.41797ZM0.015625 17H-0.984375V18H0.015625V17ZM0.015625 0.195312V-0.804688H-0.984375V0.195312H0.015625ZM2.41797 0.195312H3.41797V-0.804688H2.41797V0.195312ZM17.7578 16H15.3555V18H17.7578V16ZM16.3555 17V9.80469H14.3555V17H16.3555ZM15.3555 8.80469H3.61328V10.8047H15.3555V8.80469ZM4.61328 9.80469V7.40234H2.61328V9.80469H4.61328ZM3.61328 8.40234H15.3555V6.40234H3.61328V8.40234ZM16.3555 7.40234V0.195312H14.3555V7.40234H16.3555ZM15.3555 1.19531H17.7578V-0.804688H15.3555V1.19531ZM16.7578 0.195312V17H18.7578V0.195312H16.7578ZM2.41797 16H0.015625V18H2.41797V16ZM1.01562 17V0.195312H-0.984375V17H1.01562ZM0.015625 1.19531H2.41797V-0.804688H0.015625V1.19531ZM1.41797 0.195312V17H3.41797V0.195312H1.41797ZM42.6906 17V18H43.6906V17H42.6906ZM40.2883 17H39.2883V18H40.2883V17ZM40.2883 12.1953H41.2883V11.1953H40.2883V12.1953ZM26.882 12.1953H25.882V13.1953H26.882V12.1953ZM26.882 9.80469V8.80469H25.882V9.80469H26.882ZM40.2883 9.80469V10.8047H41.2883V9.80469H40.2883ZM40.2883 2.59766H41.2883V1.59766H40.2883V2.59766ZM29.3547 3.07812L29.7498 3.9968L29.7581 3.99315L29.3547 3.07812ZM27.4562 4.36719L28.1634 5.07431L28.1684 5.06919L27.4562 4.36719ZM26.1672 6.26562L25.2521 5.86221L25.2486 5.87051L26.1672 6.26562ZM25.6984 17V18H26.6984V17H25.6984ZM23.2961 17H22.2961V18H23.2961V17ZM23.5891 6.37109L22.6267 6.09913L22.6248 6.10618L23.5891 6.37109ZM24.4328 4.36719L23.5706 3.86063L23.5686 3.864L24.4328 4.36719ZM27.4445 1.34375L26.938 0.481526L26.9332 0.484344L27.4445 1.34375ZM29.4484 0.5L29.7134 1.46432L29.7232 1.46152L29.4484 0.5ZM42.6906 0.195312H43.6906V-0.804688H42.6906V0.195312ZM42.6906 16H40.2883V18H42.6906V16ZM41.2883 17V12.1953H39.2883V17H41.2883ZM40.2883 11.1953H26.882V13.1953H40.2883V11.1953ZM27.882 12.1953V9.80469H25.882V12.1953H27.882ZM26.882 10.8047H40.2883V8.80469H26.882V10.8047ZM41.2883 9.80469V2.59766H39.2883V9.80469H41.2883ZM40.2883 1.59766H31.675V3.59766H40.2883V1.59766ZM31.675 1.59766C30.7205 1.59766 29.8092 1.78488 28.9513 2.1631L29.7581 3.99315C30.3533 3.73074 30.9889 3.59766 31.675 3.59766V1.59766ZM28.9596 2.15949C28.118 2.52148 27.3766 3.02352 26.7441 3.66519L28.1684 5.06919C28.614 4.6171 29.1383 4.25977 29.7498 3.99676L28.9596 2.15949ZM26.7491 3.66008C26.119 4.29026 25.6203 5.02722 25.2522 5.86223L27.0822 6.66902C27.3547 6.05091 27.7154 5.52224 28.1634 5.07429L26.7491 3.66008ZM25.2486 5.87051C24.8799 6.72774 24.6984 7.64018 24.6984 8.59766H26.6984C26.6984 7.89888 26.8295 7.25664 27.0858 6.66074L25.2486 5.87051ZM24.6984 8.59766V17H26.6984V8.59766H24.6984ZM25.6984 16H23.2961V18H25.6984V16ZM24.2961 17V8.59766H22.2961V17H24.2961ZM24.2961 8.59766C24.2961 7.90933 24.3829 7.2565 24.5533 6.636L22.6248 6.10618C22.4046 6.90757 22.2961 7.73911 22.2961 8.59766H24.2961ZM24.5514 6.64305C24.7327 6.00149 24.9818 5.41166 25.297 4.87038L23.5686 3.864C23.1651 4.55709 22.8517 5.3032 22.6268 6.09914L24.5514 6.64305ZM25.295 4.87374C25.6196 4.32121 26.0052 3.82232 26.4524 3.37508L25.0382 1.96086C24.4698 2.52924 23.9804 3.16317 23.5706 3.86064L25.295 4.87374ZM26.4524 3.37508C26.9103 2.91724 27.4111 2.52725 27.9558 2.20316L26.9332 0.484344C26.2436 0.894627 25.6116 1.38745 25.0382 1.96086L26.4524 3.37508ZM27.9511 2.20596C28.4991 1.88402 29.0856 1.63672 29.7133 1.46427L29.1835 -0.464273C28.3894 -0.246099 27.64 0.0691075 26.938 0.481539L27.9511 2.20596ZM29.7232 1.46152C30.3407 1.28508 30.9902 1.19531 31.675 1.19531V-0.804688C30.8129 -0.804688 29.978 -0.691328 29.1737 -0.461524L29.7232 1.46152ZM31.675 1.19531H42.6906V-0.804688H31.675V1.19531ZM41.6906 0.195312V17H43.6906V0.195312H41.6906ZM66.1117 17V18H67.1117V17H66.1117ZM49.6703 14.5508L48.922 15.2142L48.9259 15.2185L49.6703 14.5508ZM48.1117 5.33984L49.0521 5.67984L49.053 5.67755L48.1117 5.33984ZM49.6703 2.66797L48.9225 2.00408L48.9221 2.00456L49.6703 2.66797ZM52.1195 0.863281L52.5367 1.77213L52.5428 1.76927L52.1195 0.863281ZM66.1117 0.195312H67.1117V-0.804688H66.1117V0.195312ZM66.1117 2.59766V3.59766H67.1117V2.59766H66.1117ZM53.057 3.07812L53.487 3.981L53.4915 3.97882L53.057 3.07812ZM51.3812 4.36719L50.6166 3.72271L50.6158 3.72373L51.3812 4.36719ZM50.3266 6.26562L49.3809 5.94025L49.3779 5.9494L50.3266 6.26562ZM50.3266 10.9414L49.3768 11.2546L49.381 11.2668L50.3266 10.9414ZM51.3812 12.8516L50.6112 13.4896L50.6162 13.4956L50.6212 13.5014L51.3812 12.8516ZM53.057 14.1289L52.6271 15.0318L52.6312 15.0337L53.057 14.1289ZM66.1117 14.5977H67.1117V13.5977H66.1117V14.5977ZM66.1117 16H55.2953V18H66.1117V16ZM55.2953 16C54.2593 16 53.3452 15.806 52.5367 15.4349L51.7024 17.2526C52.8001 17.7565 54.0032 18 55.2953 18V16ZM52.5367 15.4349C51.7042 15.0528 51.0002 14.5359 50.4147 13.8831L48.9259 15.2185C49.6998 16.0813 50.6286 16.7597 51.7024 17.2526L52.5367 15.4349ZM50.4186 13.8874C49.8372 13.2317 49.3803 12.4537 49.053 11.5412L47.1705 12.2166C47.5775 13.351 48.1596 14.3543 48.9221 15.2142L50.4186 13.8874ZM49.053 11.5412C48.7273 10.6335 48.5609 9.65477 48.5609 8.59766H46.5609C46.5609 9.86867 46.7617 11.0774 47.1705 12.2166L49.053 11.5412ZM48.5609 8.59766C48.5609 7.54911 48.7271 6.57897 49.0521 5.67984L47.1713 4.99984C46.762 6.13197 46.5609 7.33371 46.5609 8.59766H48.5609ZM49.053 5.67755C49.3803 4.76507 49.8372 3.98707 50.4186 3.33137L48.9221 2.00456C48.1596 2.86449 47.5775 3.86774 47.1705 5.00214L49.053 5.67755ZM50.4181 3.33186C51.0035 2.67248 51.7064 2.15322 52.5367 1.77211L51.7024 -0.0455484C50.6264 0.448345 49.6965 1.1322 48.9225 2.00408L50.4181 3.33186ZM52.5428 1.76927C53.3499 1.39221 54.2618 1.19531 55.2953 1.19531V-0.804688C54.0007 -0.804688 52.7954 -0.556268 51.6962 -0.0427122L52.5428 1.76927ZM55.2953 1.19531H66.1117V-0.804688H55.2953V1.19531ZM65.1117 0.195312V2.59766H67.1117V0.195312H65.1117ZM66.1117 1.59766H55.2953V3.59766H66.1117V1.59766ZM55.2953 1.59766C54.3354 1.59766 53.438 1.7841 52.6226 2.17743L53.4915 3.97882C54.0042 3.73152 54.599 3.59766 55.2953 3.59766V1.59766ZM52.6271 2.17526C51.8443 2.54803 51.171 3.06503 50.6166 3.72272L52.1459 5.01166C52.5134 4.5756 52.9573 4.23322 53.487 3.98099L52.6271 2.17526ZM50.6158 3.72373C50.0767 4.36509 49.6673 5.10812 49.381 5.94026L51.2721 6.59099C51.4858 5.97001 51.7796 5.44741 52.1467 5.01064L50.6158 3.72373ZM49.3779 5.9494C49.099 6.78589 48.9633 7.67078 48.9633 8.59766H50.9633C50.9633 7.86828 51.0697 7.19849 51.2752 6.58185L49.3779 5.9494ZM48.9633 8.59766C48.9633 9.52464 49.0991 10.4122 49.3769 11.2546L51.2762 10.6282C51.0697 10.0018 50.9633 9.32693 50.9633 8.59766H48.9633ZM49.381 11.2668C49.667 12.0979 50.0751 12.8426 50.6112 13.4896L52.1513 12.2135C51.7811 11.7668 51.4862 11.238 51.2721 10.616L49.381 11.2668ZM50.6212 13.5014C51.1755 14.1497 51.8475 14.6605 52.6271 15.0318L53.487 13.226C52.954 12.9723 52.5088 12.6315 52.1413 12.2017L50.6212 13.5014ZM52.6312 15.0337C53.4447 15.4165 54.339 15.5977 55.2953 15.5977V13.5977C54.5954 13.5977 53.9975 13.4663 53.4828 13.2241L52.6312 15.0337ZM55.2953 15.5977H66.1117V13.5977H55.2953V15.5977ZM65.1117 14.5977V17H67.1117V14.5977H65.1117ZM90.3648 17V18H92.7831L91.0711 16.2921L90.3648 17ZM87.1305 17L86.421 17.7047L86.7143 18H87.1305V17ZM78.5523 8.36328L79.2619 7.65859L78.6604 7.05305L77.9679 7.55185L78.5523 8.36328ZM73.232 12.1953L72.6476 11.3839L72.232 11.6832V12.1953H73.232ZM73.232 17V18H74.232V17H73.232ZM70.8297 17H69.8297V18H70.8297V17ZM70.8297 0.195312V-0.804688H69.8297V0.195312H70.8297ZM73.232 0.195312H74.232V-0.804688H73.232V0.195312ZM73.232 9.55859H72.232V11.4964L73.8114 10.3736L73.232 9.55859ZM86.4039 0.195312V-0.804688H86.0847L85.8245 -0.619742L86.4039 0.195312ZM89.9078 0.195312L90.4912 1.00749L93.014 -0.804688H89.9078V0.195312ZM80.3805 7.03906L79.7971 6.22688L78.8398 6.91453L79.6742 7.747L80.3805 7.03906ZM90.3648 16H87.1305V18H90.3648V16ZM87.84 16.2953L79.2619 7.65859L77.8428 9.06798L86.421 17.7047L87.84 16.2953ZM77.9679 7.55185L72.6476 11.3839L73.8165 13.0067L79.1368 9.17471L77.9679 7.55185ZM72.232 12.1953V17H74.232V12.1953H72.232ZM73.232 16H70.8297V18H73.232V16ZM71.8297 17V0.195312H69.8297V17H71.8297ZM70.8297 1.19531H73.232V-0.804688H70.8297V1.19531ZM72.232 0.195312V9.55859H74.232V0.195312H72.232ZM73.8114 10.3736L86.9833 1.01037L85.8245 -0.619742L72.6526 8.74354L73.8114 10.3736ZM86.4039 1.19531H89.9078V-0.804688H86.4039V1.19531ZM89.3244 -0.616866L79.7971 6.22688L80.9639 7.85124L90.4912 1.00749L89.3244 -0.616866ZM79.6742 7.747L89.6586 17.7079L91.0711 16.2921L81.0867 6.33113L79.6742 7.747ZM113.317 11.8789L112.378 11.5349L112.376 11.5412L113.317 11.8789ZM109.298 16.3438L108.88 15.4349L108.878 15.4362L109.298 16.3438ZM97.6727 17H96.6727V18H97.6727V17ZM97.6727 14.5977V13.5977H96.6727V14.5977H97.6727ZM108.372 14.1289L107.946 13.2241L107.942 13.226L108.372 14.1289ZM110.048 12.8516L109.283 12.2071L109.282 12.2081L110.048 12.8516ZM111.102 10.9414L110.156 10.6191L110.154 10.6252L111.102 10.9414ZM111.102 6.26562L110.154 6.58187L110.157 6.59099L111.102 6.26562ZM110.048 4.36719L109.278 5.00521L109.283 5.01118L109.288 5.01707L110.048 4.36719ZM108.372 3.07812L107.933 3.97679L107.94 3.97991L107.946 3.98294L108.372 3.07812ZM96.4773 2.59766V1.59766H95.4773V2.59766H96.4773ZM96.4773 17V18H97.4773V17H96.4773ZM94.075 17H93.075V18H94.075V17ZM94.075 0.195312V-0.804688H93.075V0.195312H94.075ZM109.298 0.863281L108.871 1.76797L108.88 1.77211L109.298 0.863281ZM111.747 2.66797L110.999 3.33187L111.002 3.33566L111.747 2.66797ZM113.317 5.33984L112.376 5.67756L112.379 5.68622L113.317 5.33984ZM112.88 8.59766C112.88 9.65237 112.71 10.6289 112.378 11.5349L114.256 12.2229C114.674 11.082 114.88 9.87107 114.88 8.59766H112.88ZM112.376 11.5412C112.049 12.4513 111.59 13.2279 111.002 13.8831L112.491 15.2185C113.263 14.358 113.851 13.3533 114.258 12.2166L112.376 11.5412ZM111.002 13.8831C110.417 14.5359 109.713 15.0528 108.88 15.4349L109.715 17.2526C110.789 16.7597 111.717 16.0813 112.491 15.2185L111.002 13.8831ZM108.878 15.4362C108.078 15.8064 107.173 16 106.145 16V18C107.431 18 108.627 17.7561 109.718 17.2513L108.878 15.4362ZM106.145 16H97.6727V18H106.145V16ZM98.6727 17V14.5977H96.6727V17H98.6727ZM97.6727 15.5977H106.145V13.5977H97.6727V15.5977ZM106.145 15.5977C107.101 15.5977 107.994 15.4166 108.802 15.0318L107.942 13.226C107.438 13.4662 106.845 13.5977 106.145 13.5977V15.5977ZM108.798 15.0337C109.587 14.6623 110.263 14.1494 110.813 13.495L109.282 12.2081C108.926 12.6318 108.485 12.9705 107.946 13.2241L108.798 15.0337ZM110.812 13.496C111.36 12.8457 111.772 12.0957 112.051 11.2576L110.154 10.6252C109.949 11.2402 109.657 11.7637 109.283 12.2071L110.812 13.496ZM112.049 11.2637C112.337 10.4187 112.477 9.52798 112.477 8.59766H110.477C110.477 9.32359 110.368 9.99534 110.156 10.6191L112.049 11.2637ZM112.477 8.59766C112.477 7.66743 112.337 6.77937 112.048 5.94026L110.157 6.59099C110.368 7.20501 110.477 7.87163 110.477 8.59766H112.477ZM112.051 5.9494C111.771 5.11033 111.359 4.36197 110.808 3.7173L109.288 5.01707C109.658 5.45053 109.949 5.96779 110.154 6.58185L112.051 5.9494ZM110.818 3.72917C110.268 3.06533 109.59 2.54622 108.798 2.17331L107.946 3.98294C108.482 4.23503 108.921 4.57529 109.278 5.00521L110.818 3.72917ZM108.811 2.17946C108 1.78403 107.105 1.59766 106.145 1.59766V3.59766C106.842 3.59766 107.431 3.73159 107.933 3.97679L108.811 2.17946ZM106.145 1.59766H96.4773V3.59766H106.145V1.59766ZM95.4773 2.59766V17H97.4773V2.59766H95.4773ZM96.4773 16H94.075V18H96.4773V16ZM95.075 17V0.195312H93.075V17H95.075ZM94.075 1.19531H106.145V-0.804688H94.075V1.19531ZM106.145 1.19531C107.17 1.19531 108.073 1.39183 108.871 1.76793L109.724 -0.041368C108.632 -0.555892 107.433 -0.804688 106.145 -0.804688V1.19531ZM108.88 1.77211C109.711 2.15322 110.414 2.67248 110.999 3.33186L112.495 2.00408C111.721 1.1322 110.791 0.448345 109.715 -0.0455484L108.88 1.77211ZM111.002 3.33566C111.59 3.99082 112.049 4.76741 112.376 5.67755L114.258 5.00214C113.851 3.8654 113.263 2.86074 112.491 2.00028L111.002 3.33566ZM112.379 5.68622C112.71 6.58361 112.88 7.55153 112.88 8.59766H114.88C114.88 7.33129 114.674 6.12733 114.255 4.99347L112.379 5.68622ZM137.852 17V18H138.852V17H137.852ZM135.449 17H134.449V18H135.449V17ZM135.449 12.1953H136.449V11.1953H135.449V12.1953ZM122.043 12.1953H121.043V13.1953H122.043V12.1953ZM122.043 9.80469V8.80469H121.043V9.80469H122.043ZM135.449 9.80469V10.8047H136.449V9.80469H135.449ZM135.449 2.59766H136.449V1.59766H135.449V2.59766ZM124.516 3.07812L124.911 3.9968L124.919 3.99315L124.516 3.07812ZM122.617 4.36719L123.324 5.07431L123.329 5.06919L122.617 4.36719ZM121.328 6.26562L120.413 5.86221L120.409 5.87051L121.328 6.26562ZM120.859 17V18H121.859V17H120.859ZM118.457 17H117.457V18H118.457V17ZM118.75 6.37109L117.788 6.09913L117.786 6.10618L118.75 6.37109ZM119.594 4.36719L118.732 3.86063L118.73 3.864L119.594 4.36719ZM122.605 1.34375L122.099 0.481526L122.094 0.484344L122.605 1.34375ZM124.609 0.5L124.874 1.46432L124.884 1.46152L124.609 0.5ZM137.852 0.195312H138.852V-0.804688H137.852V0.195312ZM137.852 16H135.449V18H137.852V16ZM136.449 17V12.1953H134.449V17H136.449ZM135.449 11.1953H122.043V13.1953H135.449V11.1953ZM123.043 12.1953V9.80469H121.043V12.1953H123.043ZM122.043 10.8047H135.449V8.80469H122.043V10.8047ZM136.449 9.80469V2.59766H134.449V9.80469H136.449ZM135.449 1.59766H126.836V3.59766H135.449V1.59766ZM126.836 1.59766C125.881 1.59766 124.97 1.78488 124.112 2.1631L124.919 3.99315C125.514 3.73074 126.15 3.59766 126.836 3.59766V1.59766ZM124.121 2.15949C123.279 2.52148 122.538 3.02352 121.905 3.66519L123.329 5.06919C123.775 4.6171 124.299 4.25977 124.911 3.99676L124.121 2.15949ZM121.91 3.66008C121.28 4.29026 120.781 5.02722 120.413 5.86223L122.243 6.66902C122.516 6.05091 122.876 5.52224 123.324 5.07429L121.91 3.66008ZM120.409 5.87051C120.041 6.72774 119.859 7.64018 119.859 8.59766H121.859C121.859 7.89888 121.99 7.25664 122.247 6.66074L120.409 5.87051ZM119.859 8.59766V17H121.859V8.59766H119.859ZM120.859 16H118.457V18H120.859V16ZM119.457 17V8.59766H117.457V17H119.457ZM119.457 8.59766C119.457 7.90933 119.544 7.2565 119.714 6.636L117.786 6.10618C117.566 6.90757 117.457 7.73911 117.457 8.59766H119.457ZM119.712 6.64305C119.894 6.00149 120.143 5.41166 120.458 4.87038L118.73 3.864C118.326 4.55709 118.013 5.3032 117.788 6.09914L119.712 6.64305ZM120.456 4.87374C120.781 4.32121 121.166 3.82232 121.613 3.37508L120.199 1.96086C119.631 2.52924 119.141 3.16317 118.732 3.86064L120.456 4.87374ZM121.613 3.37508C122.071 2.91724 122.572 2.52725 123.117 2.20316L122.094 0.484344C121.405 0.894627 120.773 1.38745 120.199 1.96086L121.613 3.37508ZM123.112 2.20596C123.66 1.88402 124.247 1.63672 124.874 1.46427L124.344 -0.464273C123.55 -0.246099 122.801 0.0691075 122.099 0.481539L123.112 2.20596ZM124.884 1.46152C125.502 1.28508 126.151 1.19531 126.836 1.19531V-0.804688C125.974 -0.804688 125.139 -0.691328 124.335 -0.461524L124.884 1.46152ZM126.836 1.19531H137.852V-0.804688H126.836V1.19531ZM136.852 0.195312V17H138.852V0.195312H136.852ZM161.976 14.082L161.098 13.6024L161.096 13.6065L161.976 14.082ZM160.687 15.6055L161.31 16.3874L161.311 16.3863L160.687 15.6055ZM143.038 17H142.038V18H143.038V17ZM143.038 14.5977V13.5977H142.038V14.5977H143.038ZM158.988 13.8945L158.433 13.0624L158.424 13.0687L158.988 13.8945ZM159.761 13.1328L158.926 12.5832L158.922 12.5886L159.761 13.1328ZM160.054 11H161.054V10H160.054V11ZM146.695 10.5312L146.299 11.4499L146.303 11.4514L146.695 10.5312ZM144.784 9.25391L144.072 9.95591L144.077 9.96103L144.082 9.96608L144.784 9.25391ZM143.507 7.34375L142.587 7.73531L142.588 7.73886L143.507 7.34375ZM143.038 0.195312V-0.804688H142.038V0.195312H143.038ZM145.441 0.195312H146.441V-0.804688H145.441V0.195312ZM146.484 7.55469L145.768 8.25322L145.776 8.26185L145.785 8.27026L146.484 7.55469ZM160.054 8.59766V9.59766H161.054V8.59766H160.054ZM160.054 0.195312V-0.804688H159.054V0.195312H160.054ZM162.456 0.195312H163.456V-0.804688H162.456V0.195312ZM161.456 12.1953C161.456 12.7006 161.338 13.1645 161.098 13.6024L162.853 14.5617C163.254 13.8277 163.456 13.0337 163.456 12.1953H161.456ZM161.096 13.6065C160.851 14.0592 160.511 14.4652 160.062 14.8246L161.311 16.3863C161.956 15.8707 162.475 15.2611 162.855 14.5575L161.096 13.6065ZM160.063 14.8235C159.623 15.1744 159.094 15.4623 158.463 15.6794L159.114 17.5706C159.936 17.2877 160.672 16.8959 161.31 16.3874L160.063 14.8235ZM158.463 15.6794C157.849 15.8907 157.182 16 156.456 16V18C157.386 18 158.275 17.8593 159.114 17.5706L158.463 15.6794ZM156.456 16H143.038V18H156.456V16ZM144.038 17V14.5977H142.038V17H144.038ZM143.038 15.5977H156.456V13.5977H143.038V15.5977ZM156.456 15.5977C157.034 15.5977 157.592 15.5242 158.126 15.3717L157.576 13.4486C157.235 13.5461 156.863 13.5977 156.456 13.5977V15.5977ZM158.126 15.3717C158.649 15.2222 159.129 15.009 159.551 14.7203L158.424 13.0687C158.206 13.2176 157.928 13.3481 157.576 13.4486L158.126 15.3717ZM159.542 14.7266C159.967 14.4431 160.328 14.0958 160.6 13.677L158.922 12.5886C158.819 12.748 158.664 12.9084 158.433 13.0625L159.542 14.7266ZM160.596 13.6824C160.89 13.2365 161.054 12.7351 161.054 12.1953H159.054C159.054 12.3118 159.023 12.4354 158.926 12.5832L160.596 13.6824ZM161.054 12.1953V11H159.054V12.1953H161.054ZM160.054 10H149.038V12H160.054V10ZM149.038 10C148.34 10 147.692 9.86892 147.086 9.6111L146.303 11.4514C147.166 11.8186 148.081 12 149.038 12V10ZM147.09 9.61262C146.474 9.34775 145.942 8.99086 145.486 8.54173L144.082 9.96608C144.72 10.5951 145.462 11.0897 146.299 11.4499L147.09 9.61262ZM145.497 8.5519C145.047 8.09626 144.691 7.56445 144.426 6.94864L142.588 7.73886C142.949 8.57618 143.443 9.3178 144.072 9.95591L145.497 8.5519ZM144.427 6.9522C144.169 6.34631 144.038 5.69873 144.038 5H142.038C142.038 5.95752 142.22 6.87244 142.587 7.7353L144.427 6.9522ZM144.038 5V0.195312H142.038V5H144.038ZM143.038 1.19531H145.441V-0.804688H143.038V1.19531ZM144.441 0.195312V5H146.441V0.195312H144.441ZM144.441 5C144.441 5.62847 144.559 6.23195 144.803 6.80017L146.641 6.01233C146.51 5.70555 146.441 5.37153 146.441 5H144.441ZM144.803 6.80017C145.037 7.3465 145.358 7.83362 145.768 8.25322L147.199 6.85615C146.968 6.6195 146.782 6.341 146.641 6.01233L144.803 6.80017ZM145.785 8.27026C146.205 8.67988 146.692 9.00141 147.238 9.23555L148.026 7.39726C147.697 7.2564 147.419 7.07012 147.182 6.83911L145.785 8.27026ZM147.238 9.23555C147.806 9.47907 148.41 9.59766 149.038 9.59766V7.59766C148.667 7.59766 148.333 7.52874 148.026 7.39726L147.238 9.23555ZM149.038 9.59766H160.054V7.59766H149.038V9.59766ZM161.054 8.59766V0.195312H159.054V8.59766H161.054ZM160.054 1.19531H162.456V-0.804688H160.054V1.19531ZM161.456 0.195312V12.1953H163.456V0.195312H161.456Z" fill="#D4E2E1"/>
</svg>
