<svg width="274" height="28" viewBox="0 0 274 28" fill="none"
  xmlns="http://www.w3.org/2000/svg">
  <path d="M0.728 28V2.08H5.012V28H0.728ZM12.6299 28V7.12H29.0459C29.9099 7.12 30.7019 7.348 31.4219 7.804C32.1659 8.236 32.7539 8.812 33.1859 9.532C33.6179 10.252 33.8339 11.056 33.8339 11.944V28H29.5499V12.088C29.5499 11.896 29.4779 11.74 29.3339 11.62C29.2139 11.476 29.0699 11.404 28.9019 11.404H17.5979C17.4299 11.404 17.2739 11.476 17.1299 11.62C16.9859 11.74 16.9139 11.896 16.9139 12.088V28H12.6299ZM46.0843 28C45.1963 28 44.3803 27.784 43.6363 27.352C42.9163 26.896 42.3403 26.308 41.9083 25.588C41.4763 24.868 41.2603 24.064 41.2603 23.176V0.603999H45.5443V7.12H53.8963V11.404H45.5443V23.032C45.5443 23.224 45.6043 23.392 45.7243 23.536C45.8683 23.656 46.0363 23.716 46.2283 23.716H53.8963V28H46.0843ZM60.5392 28V11.944C60.5392 11.056 60.7552 10.252 61.1872 9.532C61.6432 8.812 62.2312 8.236 62.9512 7.804C63.6952 7.348 64.4992 7.12 65.3632 7.12H76.9912V11.404H65.5072C65.3152 11.404 65.1472 11.476 65.0032 11.62C64.8832 11.74 64.8232 11.896 64.8232 12.088V28H60.5392ZM87.5952 28C86.7072 28 85.9032 27.784 85.1832 27.352C84.4632 26.896 83.8752 26.308 83.4192 25.588C82.9872 24.868 82.7712 24.064 82.7712 23.176V11.944C82.7712 11.056 82.9872 10.252 83.4192 9.532C83.8752 8.812 84.4632 8.236 85.1832 7.804C85.9032 7.348 86.7072 7.12 87.5952 7.12H99.1512C100.063 7.12 100.879 7.348 101.599 7.804C102.319 8.236 102.895 8.812 103.327 9.532C103.759 10.252 103.975 11.056 103.975 11.944V23.176C103.975 24.064 103.759 24.868 103.327 25.588C102.895 26.308 102.319 26.896 101.599 27.352C100.879 27.784 100.063 28 99.1512 28H87.5952ZM87.7392 23.716H99.0072C99.1992 23.716 99.3552 23.656 99.4752 23.536C99.6192 23.392 99.6912 23.224 99.6912 23.032V12.088C99.6912 11.896 99.6192 11.74 99.4752 11.62C99.3552 11.476 99.1992 11.404 99.0072 11.404H87.7392C87.5472 11.404 87.3792 11.476 87.2352 11.62C87.1152 11.74 87.0552 11.896 87.0552 12.088V23.032C87.0552 23.224 87.1152 23.392 87.2352 23.536C87.3792 23.656 87.5472 23.716 87.7392 23.716ZM115.113 28C114.225 28 113.409 27.784 112.665 27.352C111.945 26.896 111.369 26.308 110.937 25.588C110.505 24.868 110.289 24.064 110.289 23.176V11.944C110.289 11.056 110.505 10.252 110.937 9.532C111.369 8.812 111.945 8.236 112.665 7.804C113.409 7.348 114.225 7.12 115.113 7.12H127.245V0.279999H131.529V28H115.113ZM115.293 23.716H126.561C126.753 23.716 126.909 23.656 127.029 23.536C127.173 23.392 127.245 23.224 127.245 23.032V12.088C127.245 11.896 127.173 11.74 127.029 11.62C126.909 11.476 126.753 11.404 126.561 11.404H115.293C115.101 11.404 114.933 11.476 114.789 11.62C114.669 11.74 114.609 11.896 114.609 12.088V23.032C114.609 23.224 114.669 23.392 114.789 23.536C114.933 23.656 115.101 23.716 115.293 23.716ZM142.926 28C142.038 28 141.222 27.784 140.478 27.352C139.758 26.896 139.182 26.308 138.75 25.588C138.318 24.868 138.102 24.064 138.102 23.176V7.12H142.386V23.032C142.386 23.224 142.446 23.392 142.566 23.536C142.71 23.656 142.878 23.716 143.07 23.716H154.338C154.53 23.716 154.686 23.656 154.806 23.536C154.95 23.392 155.022 23.224 155.022 23.032V7.12H159.306V23.176C159.306 24.064 159.09 24.868 158.658 25.588C158.226 26.308 157.65 26.896 156.93 27.352C156.21 27.784 155.394 28 154.482 28H142.926ZM170.676 28C169.788 28 168.984 27.784 168.264 27.352C167.544 26.896 166.956 26.308 166.5 25.588C166.068 24.868 165.852 24.064 165.852 23.176V11.944C165.852 11.056 166.068 10.252 166.5 9.532C166.956 8.812 167.544 8.236 168.264 7.804C168.984 7.348 169.788 7.12 170.676 7.12H187.02V11.404H170.82C170.628 11.404 170.46 11.476 170.316 11.62C170.196 11.74 170.136 11.896 170.136 12.088V23.032C170.136 23.224 170.196 23.392 170.316 23.536C170.46 23.656 170.628 23.716 170.82 23.716H187.056V28H170.676ZM198.43 28C197.542 28 196.726 27.784 195.982 27.352C195.262 26.896 194.686 26.308 194.254 25.588C193.822 24.868 193.606 24.064 193.606 23.176V0.603999H197.89V7.12H206.242V11.404H197.89V23.032C197.89 23.224 197.95 23.392 198.07 23.536C198.214 23.656 198.382 23.716 198.574 23.716H206.242V28H198.43ZM212.78 28V7.12H217.064V28H212.78ZM212.78 4.6V0.279999H217.064V4.6H212.78ZM229.043 28C228.155 28 227.351 27.784 226.631 27.352C225.911 26.896 225.323 26.308 224.867 25.588C224.435 24.868 224.219 24.064 224.219 23.176V11.944C224.219 11.056 224.435 10.252 224.867 9.532C225.323 8.812 225.911 8.236 226.631 7.804C227.351 7.348 228.155 7.12 229.043 7.12H240.599C241.511 7.12 242.327 7.348 243.047 7.804C243.767 8.236 244.343 8.812 244.775 9.532C245.207 10.252 245.423 11.056 245.423 11.944V23.176C245.423 24.064 245.207 24.868 244.775 25.588C244.343 26.308 243.767 26.896 243.047 27.352C242.327 27.784 241.511 28 240.599 28H229.043ZM229.187 23.716H240.455C240.647 23.716 240.803 23.656 240.923 23.536C241.067 23.392 241.139 23.224 241.139 23.032V12.088C241.139 11.896 241.067 11.74 240.923 11.62C240.803 11.476 240.647 11.404 240.455 11.404H229.187C228.995 11.404 228.827 11.476 228.683 11.62C228.563 11.74 228.503 11.896 228.503 12.088V23.032C228.503 23.224 228.563 23.392 228.683 23.536C228.827 23.656 228.995 23.716 229.187 23.716ZM252.044 28V7.12H268.46C269.324 7.12 270.116 7.348 270.836 7.804C271.58 8.236 272.168 8.812 272.6 9.532C273.032 10.252 273.248 11.056 273.248 11.944V28H268.964V12.088C268.964 11.896 268.892 11.74 268.748 11.62C268.628 11.476 268.484 11.404 268.316 11.404H257.012C256.844 11.404 256.688 11.476 256.544 11.62C256.4 11.74 256.328 11.896 256.328 12.088V28H252.044Z" fill="#48E4D1"/>
</svg>
