<svg width="168" height="26" viewBox="0 0 168 26" fill="none" xmlns="http://www.w3.org/2000/svg">
<path d="M0.0880001 26V4.94C0.0880001 4.052 0.304 3.236 0.736 2.492C1.168 1.748 1.756 1.16 2.5 0.727999C3.244 0.295999 4.06 0.079999 4.948 0.079999H21.148C22.036 0.079999 22.84 0.295999 23.56 0.727999C24.304 1.16 24.892 1.748 25.324 2.492C25.78 3.236 26.008 4.052 26.008 4.94V26H21.652V17.108H4.408V26H0.0880001ZM4.408 12.788H21.652V5.084C21.652 4.892 21.58 4.736 21.436 4.616C21.316 4.496 21.172 4.436 21.004 4.436H5.056C4.888 4.436 4.732 4.496 4.588 4.616C4.468 4.736 4.408 4.892 4.408 5.084V12.788ZM38.3537 26C37.4657 26 36.6617 25.784 35.9417 25.352C35.2217 24.896 34.6337 24.308 34.1777 23.588C33.7457 22.868 33.5297 22.064 33.5297 21.176V9.944C33.5297 9.056 33.7457 8.252 34.1777 7.532C34.6337 6.812 35.2217 6.236 35.9417 5.804C36.6617 5.348 37.4657 5.12 38.3537 5.12H54.6978V9.404H38.4977C38.3057 9.404 38.1377 9.476 37.9937 9.62C37.8737 9.74 37.8137 9.896 37.8137 10.088V21.032C37.8137 21.224 37.8737 21.392 37.9937 21.536C38.1377 21.656 38.3057 21.716 38.4977 21.716H54.7338V26H38.3537ZM66.8092 26C65.9212 26 65.1172 25.784 64.3972 25.352C63.6772 24.896 63.0892 24.308 62.6332 23.588C62.2012 22.868 61.9852 22.064 61.9852 21.176V9.944C61.9852 9.056 62.2012 8.252 62.6332 7.532C63.0892 6.812 63.6772 6.236 64.3972 5.804C65.1172 5.348 65.9212 5.12 66.8092 5.12H83.1532V9.404H66.9532C66.7612 9.404 66.5932 9.476 66.4492 9.62C66.3292 9.74 66.2692 9.896 66.2692 10.088V21.032C66.2692 21.224 66.3292 21.392 66.4492 21.536C66.5932 21.656 66.7612 21.716 66.9532 21.716H83.1892V26H66.8092ZM94.5264 26C93.6384 26 92.8344 25.784 92.1144 25.352C91.3944 24.896 90.8064 24.308 90.3504 23.588C89.9184 22.868 89.7024 22.064 89.7024 21.176V9.944C89.7024 9.056 89.9184 8.252 90.3504 7.532C90.8064 6.812 91.3944 6.236 92.1144 5.804C92.8344 5.348 93.6384 5.12 94.5264 5.12H106.082C106.994 5.12 107.81 5.348 108.53 5.804C109.25 6.236 109.826 6.812 110.258 7.532C110.69 8.252 110.906 9.056 110.906 9.944V17.72H93.9864V21.032C93.9864 21.224 94.0464 21.392 94.1664 21.536C94.3104 21.656 94.4784 21.716 94.6704 21.716H110.906V26H94.5264ZM93.9864 13.796H106.622V10.088C106.622 9.896 106.55 9.74 106.406 9.62C106.286 9.476 106.13 9.404 105.938 9.404H94.6704C94.4784 9.404 94.3104 9.476 94.1664 9.62C94.0464 9.74 93.9864 9.896 93.9864 10.088V13.796ZM122.768 26C121.88 26 121.076 25.784 120.356 25.352C119.636 24.896 119.048 24.308 118.592 23.588C118.16 22.868 117.944 22.064 117.944 21.176V20.492H122.228V21.032C122.228 21.224 122.288 21.392 122.408 21.536C122.552 21.656 122.72 21.716 122.912 21.716H134.18C134.372 21.716 134.528 21.656 134.648 21.536C134.792 21.392 134.864 21.224 134.864 21.032V18.368C134.864 18.2 134.792 18.056 134.648 17.936C134.528 17.792 134.372 17.72 134.18 17.72H122.768C121.88 17.72 121.076 17.504 120.356 17.072C119.636 16.616 119.048 16.028 118.592 15.308C118.16 14.588 117.944 13.784 117.944 12.896V9.944C117.944 9.056 118.16 8.252 118.592 7.532C119.048 6.812 119.636 6.236 120.356 5.804C121.076 5.348 121.88 5.12 122.768 5.12H134.324C135.236 5.12 136.052 5.348 136.772 5.804C137.492 6.236 138.068 6.812 138.5 7.532C138.956 8.252 139.184 9.056 139.184 9.944V10.628H134.864V10.088C134.864 9.896 134.792 9.74 134.648 9.62C134.528 9.476 134.372 9.404 134.18 9.404H122.912C122.72 9.404 122.552 9.476 122.408 9.62C122.288 9.74 122.228 9.896 122.228 10.088V12.752C122.228 12.92 122.288 13.076 122.408 13.22C122.552 13.34 122.72 13.4 122.912 13.4H134.324C135.236 13.4 136.052 13.628 136.772 14.084C137.492 14.516 138.068 15.092 138.5 15.812C138.956 16.532 139.184 17.336 139.184 18.224V21.176C139.184 22.064 138.956 22.868 138.5 23.588C138.068 24.308 137.492 24.896 136.772 25.352C136.052 25.784 135.236 26 134.324 26H122.768ZM151.048 26C150.16 26 149.356 25.784 148.636 25.352C147.916 24.896 147.328 24.308 146.872 23.588C146.44 22.868 146.224 22.064 146.224 21.176V20.492H150.508V21.032C150.508 21.224 150.568 21.392 150.688 21.536C150.832 21.656 151 21.716 151.192 21.716H162.46C162.652 21.716 162.808 21.656 162.928 21.536C163.072 21.392 163.144 21.224 163.144 21.032V18.368C163.144 18.2 163.072 18.056 162.928 17.936C162.808 17.792 162.652 17.72 162.46 17.72H151.048C150.16 17.72 149.356 17.504 148.636 17.072C147.916 16.616 147.328 16.028 146.872 15.308C146.44 14.588 146.224 13.784 146.224 12.896V9.944C146.224 9.056 146.44 8.252 146.872 7.532C147.328 6.812 147.916 6.236 148.636 5.804C149.356 5.348 150.16 5.12 151.048 5.12H162.604C163.516 5.12 164.332 5.348 165.052 5.804C165.772 6.236 166.348 6.812 166.78 7.532C167.236 8.252 167.464 9.056 167.464 9.944V10.628H163.144V10.088C163.144 9.896 163.072 9.74 162.928 9.62C162.808 9.476 162.652 9.404 162.46 9.404H151.192C151 9.404 150.832 9.476 150.688 9.62C150.568 9.74 150.508 9.896 150.508 10.088V12.752C150.508 12.92 150.568 13.076 150.688 13.22C150.832 13.34 151 13.4 151.192 13.4H162.604C163.516 13.4 164.332 13.628 165.052 14.084C165.772 14.516 166.348 15.092 166.78 15.812C167.236 16.532 167.464 17.336 167.464 18.224V21.176C167.464 22.064 167.236 22.868 166.78 23.588C166.348 24.308 165.772 24.896 165.052 25.352C164.332 25.784 163.516 26 162.604 26H151.048Z" fill="#48E4D1"/>
</svg>
