<svg width="175" height="28" viewBox="0 0 175 28" fill="none" xmlns="http://www.w3.org/2000/svg">
<path d="M0.0880001 28V6.94C0.0880001 6.052 0.304 5.236 0.736 4.492C1.168 3.748 1.756 3.16 2.5 2.728C3.244 2.296 4.06 2.08 4.948 2.08H21.148C22.036 2.08 22.84 2.296 23.56 2.728C24.304 3.16 24.892 3.748 25.324 4.492C25.78 5.236 26.008 6.052 26.008 6.94V28H21.652V19.108H4.408V28H0.0880001ZM4.408 14.788H21.652V7.084C21.652 6.892 21.58 6.736 21.436 6.616C21.316 6.496 21.172 6.436 21.004 6.436H5.056C4.888 6.436 4.732 6.496 4.588 6.616C4.468 6.736 4.408 6.892 4.408 7.084V14.788ZM41.1617 28L32.9537 7.12H37.5257L42.8897 20.188L48.5777 7.12H53.2218L59.2697 20.26L64.2378 7.12H68.8458L60.9617 28H57.5777L50.9177 13.276L44.5817 28H41.1617ZM79.6421 28C78.7541 28 77.9381 27.784 77.1941 27.352C76.4741 26.896 75.8981 26.308 75.4661 25.588C75.0341 24.868 74.8181 24.064 74.8181 23.176V15.4H91.7381V12.088C91.7381 11.896 91.6661 11.74 91.5221 11.62C91.4021 11.476 91.2461 11.404 91.0541 11.404H74.8181V7.12H91.1981C92.1101 7.12 92.9261 7.348 93.6461 7.804C94.3661 8.236 94.9421 8.812 95.3741 9.532C95.8061 10.252 96.0221 11.056 96.0221 11.944V28H79.6421ZM79.7861 23.716H91.7381V19.324H79.1021V23.032C79.1021 23.224 79.1621 23.392 79.2821 23.536C79.4261 23.656 79.5941 23.716 79.7861 23.716ZM102.817 28V11.944C102.817 11.056 103.033 10.252 103.465 9.532C103.921 8.812 104.509 8.236 105.229 7.804C105.973 7.348 106.777 7.12 107.641 7.12H119.269V11.404H107.785C107.593 11.404 107.425 11.476 107.281 11.62C107.161 11.74 107.101 11.896 107.101 12.088V28H102.817ZM129.462 28C128.574 28 127.758 27.784 127.014 27.352C126.294 26.896 125.718 26.308 125.286 25.588C124.854 24.868 124.638 24.064 124.638 23.176V11.944C124.638 11.056 124.854 10.252 125.286 9.532C125.718 8.812 126.294 8.236 127.014 7.804C127.758 7.348 128.574 7.12 129.462 7.12H141.594V0.279999H145.878V28H129.462ZM129.642 23.716H140.91C141.102 23.716 141.258 23.656 141.378 23.536C141.522 23.392 141.594 23.224 141.594 23.032V12.088C141.594 11.896 141.522 11.74 141.378 11.62C141.258 11.476 141.102 11.404 140.91 11.404H129.642C129.45 11.404 129.282 11.476 129.138 11.62C129.018 11.74 128.958 11.896 128.958 12.088V23.032C128.958 23.224 129.018 23.392 129.138 23.536C129.282 23.656 129.45 23.716 129.642 23.716ZM157.974 28C157.086 28 156.282 27.784 155.562 27.352C154.842 26.896 154.254 26.308 153.798 25.588C153.366 24.868 153.15 24.064 153.15 23.176V22.492H157.434V23.032C157.434 23.224 157.494 23.392 157.614 23.536C157.758 23.656 157.926 23.716 158.118 23.716H169.386C169.578 23.716 169.734 23.656 169.854 23.536C169.998 23.392 170.07 23.224 170.07 23.032V20.368C170.07 20.2 169.998 20.056 169.854 19.936C169.734 19.792 169.578 19.72 169.386 19.72H157.974C157.086 19.72 156.282 19.504 155.562 19.072C154.842 18.616 154.254 18.028 153.798 17.308C153.366 16.588 153.15 15.784 153.15 14.896V11.944C153.15 11.056 153.366 10.252 153.798 9.532C154.254 8.812 154.842 8.236 155.562 7.804C156.282 7.348 157.086 7.12 157.974 7.12H169.53C170.442 7.12 171.258 7.348 171.978 7.804C172.698 8.236 173.274 8.812 173.706 9.532C174.162 10.252 174.39 11.056 174.39 11.944V12.628H170.07V12.088C170.07 11.896 169.998 11.74 169.854 11.62C169.734 11.476 169.578 11.404 169.386 11.404H158.118C157.926 11.404 157.758 11.476 157.614 11.62C157.494 11.74 157.434 11.896 157.434 12.088V14.752C157.434 14.92 157.494 15.076 157.614 15.22C157.758 15.34 157.926 15.4 158.118 15.4H169.53C170.442 15.4 171.258 15.628 171.978 16.084C172.698 16.516 173.274 17.092 173.706 17.812C174.162 18.532 174.39 19.336 174.39 20.224V23.176C174.39 24.064 174.162 24.868 173.706 25.588C173.274 26.308 172.698 26.896 171.978 27.352C171.258 27.784 170.442 28 169.53 28H157.974Z" fill="#48E4D1"/>
</svg>
