<svg width="120" height="26" viewBox="0 0 120 26" fill="none" xmlns="http://www.w3.org/2000/svg">
<path d="M0.0880001 26V0.079999H23.884V4.436H4.444V10.88H20.104V15.2H4.444V26H0.0880001ZM29.7036 26V4.94C29.7036 4.052 29.9196 3.236 30.3516 2.492C30.7836 1.748 31.3716 1.16 32.1156 0.727999C32.8596 0.295999 33.6756 0.079999 34.5636 0.079999H50.7636C51.6516 0.079999 52.4556 0.295999 53.1756 0.727999C53.9196 1.16 54.5076 1.748 54.9396 2.492C55.3956 3.236 55.6236 4.052 55.6236 4.94V26H51.2676V17.108H34.0236V26H29.7036ZM34.0236 12.788H51.2676V5.084C51.2676 4.892 51.1956 4.736 51.0516 4.616C50.9316 4.496 50.7876 4.436 50.6196 4.436H34.6716C34.5036 4.436 34.3476 4.496 34.2036 4.616C34.0836 4.736 34.0236 4.892 34.0236 5.084V12.788ZM84.0614 26V22.652L89.1734 20.96V21.644H92.3414V26H84.0614ZM68.1134 26C67.2254 26 66.4094 25.784 65.6654 25.352C64.9214 24.92 64.3334 24.332 63.9014 23.588C63.4694 22.844 63.2534 22.028 63.2534 21.14V4.94C63.2534 4.052 63.4694 3.236 63.9014 2.492C64.3334 1.748 64.9214 1.16 65.6654 0.727999C66.4094 0.295999 67.2254 0.079999 68.1134 0.079999H84.3134C85.2014 0.079999 86.0054 0.295999 86.7254 0.727999C87.4694 1.16 88.0574 1.748 88.4894 2.492C88.9454 3.236 89.1734 4.052 89.1734 4.94V21.14C89.1734 22.028 88.9454 22.844 88.4894 23.588C88.0574 24.332 87.4694 24.92 86.7254 25.352C86.0054 25.784 85.2014 26 84.3134 26H68.1134ZM68.2214 21.644H84.1694C84.3374 21.644 84.4814 21.584 84.6014 21.464C84.7454 21.344 84.8174 21.188 84.8174 20.996V5.084C84.8174 4.892 84.7454 4.736 84.6014 4.616C84.4814 4.496 84.3374 4.436 84.1694 4.436H68.2214C68.0534 4.436 67.8974 4.496 67.7534 4.616C67.6334 4.736 67.5734 4.892 67.5734 5.084V20.996C67.5734 21.188 67.6334 21.344 67.7534 21.464C67.8974 21.584 68.0534 21.644 68.2214 21.644ZM103.278 26C102.39 26 101.586 25.784 100.866 25.352C100.146 24.896 99.5578 24.308 99.1018 23.588C98.6698 22.868 98.4538 22.064 98.4538 21.176V20.492H102.738V21.032C102.738 21.224 102.798 21.392 102.918 21.536C103.062 21.656 103.23 21.716 103.422 21.716H114.69C114.882 21.716 115.038 21.656 115.158 21.536C115.302 21.392 115.374 21.224 115.374 21.032V18.368C115.374 18.2 115.302 18.056 115.158 17.936C115.038 17.792 114.882 17.72 114.69 17.72H103.278C102.39 17.72 101.586 17.504 100.866 17.072C100.146 16.616 99.5578 16.028 99.1018 15.308C98.6698 14.588 98.4538 13.784 98.4538 12.896V9.944C98.4538 9.056 98.6698 8.252 99.1018 7.532C99.5578 6.812 100.146 6.236 100.866 5.804C101.586 5.348 102.39 5.12 103.278 5.12H114.834C115.746 5.12 116.562 5.348 117.282 5.804C118.002 6.236 118.578 6.812 119.01 7.532C119.466 8.252 119.694 9.056 119.694 9.944V10.628H115.374V10.088C115.374 9.896 115.302 9.74 115.158 9.62C115.038 9.476 114.882 9.404 114.69 9.404H103.422C103.23 9.404 103.062 9.476 102.918 9.62C102.798 9.74 102.738 9.896 102.738 10.088V12.752C102.738 12.92 102.798 13.076 102.918 13.22C103.062 13.34 103.23 13.4 103.422 13.4H114.834C115.746 13.4 116.562 13.628 117.282 14.084C118.002 14.516 118.578 15.092 119.01 15.812C119.466 16.532 119.694 17.336 119.694 18.224V21.176C119.694 22.064 119.466 22.868 119.01 23.588C118.578 24.308 118.002 24.896 117.282 25.352C116.562 25.784 115.746 26 114.834 26H103.278Z" fill="#48E4D1"/>
</svg>
