<svg width="127" height="28" viewBox="0 0 127 28" fill="none" xmlns="http://www.w3.org/2000/svg">
<path d="M20.968 28L13.012 18.496H18.664L25.828 26.992V28H20.968ZM0.0160001 28V2.116H21.076C21.964 2.116 22.768 2.344 23.488 2.8C24.232 3.232 24.82 3.82 25.252 4.564C25.708 5.284 25.936 6.088 25.936 6.976V14.104C25.936 14.968 25.708 15.772 25.252 16.516C24.82 17.26 24.232 17.848 23.488 18.28C22.768 18.712 21.964 18.928 21.076 18.928L4.336 18.964V28H0.0160001ZM4.984 14.572H20.932C21.1 14.572 21.244 14.512 21.364 14.392C21.508 14.272 21.58 14.116 21.58 13.924V7.084C21.58 6.916 21.508 6.772 21.364 6.652C21.244 6.508 21.1 6.436 20.932 6.436H4.984C4.816 6.436 4.66 6.508 4.516 6.652C4.396 6.772 4.336 6.916 4.336 7.084V13.924C4.336 14.116 4.396 14.272 4.516 14.392C4.66 14.512 4.816 14.572 4.984 14.572ZM38.039 28C37.151 28 36.335 27.784 35.591 27.352C34.871 26.896 34.295 26.308 33.863 25.588C33.431 24.868 33.215 24.064 33.215 23.176V7.12H37.499V23.032C37.499 23.224 37.559 23.392 37.679 23.536C37.823 23.656 37.991 23.716 38.183 23.716H49.451C49.643 23.716 49.799 23.656 49.919 23.536C50.063 23.392 50.135 23.224 50.135 23.032V7.12H54.419V23.176C54.419 24.064 54.203 24.868 53.771 25.588C53.339 26.308 52.763 26.896 52.043 27.352C51.323 27.784 50.507 28 49.595 28H38.039ZM66.6343 28C65.7463 28 64.9423 27.784 64.2223 27.352C63.5023 26.896 62.9143 26.308 62.4583 25.588C62.0263 24.868 61.8103 24.064 61.8103 23.176V0.243999H66.1303V23.032C66.1303 23.224 66.1903 23.392 66.3103 23.536C66.4543 23.656 66.6103 23.716 66.7783 23.716H70.6663V28H66.6343ZM81.6592 28C80.7712 28 79.9672 27.784 79.2472 27.352C78.5272 26.896 77.9392 26.308 77.4832 25.588C77.0512 24.868 76.8352 24.064 76.8352 23.176V11.944C76.8352 11.056 77.0512 10.252 77.4832 9.532C77.9392 8.812 78.5272 8.236 79.2472 7.804C79.9672 7.348 80.7712 7.12 81.6592 7.12H93.2152C94.1272 7.12 94.9432 7.348 95.6632 7.804C96.3832 8.236 96.9592 8.812 97.3912 9.532C97.8232 10.252 98.0392 11.056 98.0392 11.944V19.72H81.1192V23.032C81.1192 23.224 81.1792 23.392 81.2992 23.536C81.4432 23.656 81.6112 23.716 81.8032 23.716H98.0392V28H81.6592ZM81.1192 15.796H93.7552V12.088C93.7552 11.896 93.6832 11.74 93.5392 11.62C93.4192 11.476 93.2632 11.404 93.0712 11.404H81.8032C81.6112 11.404 81.4432 11.476 81.2992 11.62C81.1792 11.74 81.1192 11.896 81.1192 12.088V15.796ZM109.901 28C109.013 28 108.209 27.784 107.489 27.352C106.769 26.896 106.181 26.308 105.725 25.588C105.293 24.868 105.077 24.064 105.077 23.176V22.492H109.361V23.032C109.361 23.224 109.421 23.392 109.541 23.536C109.685 23.656 109.853 23.716 110.045 23.716H121.313C121.505 23.716 121.661 23.656 121.781 23.536C121.925 23.392 121.997 23.224 121.997 23.032V20.368C121.997 20.2 121.925 20.056 121.781 19.936C121.661 19.792 121.505 19.72 121.313 19.72H109.901C109.013 19.72 108.209 19.504 107.489 19.072C106.769 18.616 106.181 18.028 105.725 17.308C105.293 16.588 105.077 15.784 105.077 14.896V11.944C105.077 11.056 105.293 10.252 105.725 9.532C106.181 8.812 106.769 8.236 107.489 7.804C108.209 7.348 109.013 7.12 109.901 7.12H121.457C122.369 7.12 123.185 7.348 123.905 7.804C124.625 8.236 125.201 8.812 125.633 9.532C126.089 10.252 126.317 11.056 126.317 11.944V12.628H121.997V12.088C121.997 11.896 121.925 11.74 121.781 11.62C121.661 11.476 121.505 11.404 121.313 11.404H110.045C109.853 11.404 109.685 11.476 109.541 11.62C109.421 11.74 109.361 11.896 109.361 12.088V14.752C109.361 14.92 109.421 15.076 109.541 15.22C109.685 15.34 109.853 15.4 110.045 15.4H121.457C122.369 15.4 123.185 15.628 123.905 16.084C124.625 16.516 125.201 17.092 125.633 17.812C126.089 18.532 126.317 19.336 126.317 20.224V23.176C126.317 24.064 126.089 24.868 125.633 25.588C125.201 26.308 124.625 26.896 123.905 27.352C123.185 27.784 122.369 28 121.457 28H109.901Z" fill="#48E4D1"/>
</svg>
