<svg width="210" height="28" viewBox="0 0 210 28" fill="none" xmlns="http://www.w3.org/2000/svg">
<path d="M5.732 28C4.844 28 4.028 27.784 3.284 27.352C2.564 26.92 1.988 26.332 1.556 25.588C1.124 24.844 0.908 24.028 0.908 23.14V21.412H5.228V22.996C5.228 23.188 5.288 23.344 5.408 23.464C5.528 23.584 5.684 23.644 5.876 23.644H21.788C21.98 23.644 22.136 23.584 22.256 23.464C22.4 23.344 22.472 23.188 22.472 22.996V17.848C22.472 17.68 22.4 17.536 22.256 17.416C22.136 17.272 21.98 17.2 21.788 17.2H5.732C4.844 17.2 4.028 16.984 3.284 16.552C2.564 16.12 1.988 15.544 1.556 14.824C1.124 14.08 0.908 13.264 0.908 12.376V6.94C0.908 6.052 1.124 5.236 1.556 4.492C1.988 3.748 2.564 3.16 3.284 2.728C4.028 2.296 4.844 2.08 5.732 2.08H21.968C22.856 2.08 23.66 2.296 24.38 2.728C25.124 3.16 25.712 3.748 26.144 4.492C26.6 5.236 26.828 6.052 26.828 6.94V8.668H22.472V7.084C22.472 6.892 22.4 6.736 22.256 6.616C22.136 6.496 21.98 6.436 21.788 6.436H5.876C5.684 6.436 5.528 6.496 5.408 6.616C5.288 6.736 5.228 6.892 5.228 7.084V12.232C5.228 12.4 5.288 12.556 5.408 12.7C5.528 12.82 5.684 12.88 5.876 12.88H21.968C22.856 12.88 23.66 13.096 24.38 13.528C25.124 13.96 25.712 14.548 26.144 15.292C26.6 16.012 26.828 16.816 26.828 17.704V23.14C26.828 24.028 26.6 24.844 26.144 25.588C25.712 26.332 25.124 26.92 24.38 27.352C23.66 27.784 22.856 28 21.968 28H5.732ZM38.967 28C38.079 28 37.275 27.784 36.555 27.352C35.835 26.896 35.247 26.308 34.791 25.588C34.359 24.868 34.143 24.064 34.143 23.176V11.944C34.143 11.056 34.359 10.252 34.791 9.532C35.247 8.812 35.835 8.236 36.555 7.804C37.275 7.348 38.079 7.12 38.967 7.12H55.311V11.404H39.111C38.919 11.404 38.751 11.476 38.607 11.62C38.487 11.74 38.427 11.896 38.427 12.088V23.032C38.427 23.224 38.487 23.392 38.607 23.536C38.751 23.656 38.919 23.716 39.111 23.716H55.347V28H38.967ZM62.0737 28V0.279999H66.3577V7.12H78.4897C79.3537 7.12 80.1457 7.348 80.8657 7.804C81.6097 8.236 82.1977 8.812 82.6297 9.532C83.0617 10.252 83.2777 11.056 83.2777 11.944V28H78.9937V12.088C78.9937 11.896 78.9217 11.74 78.7777 11.62C78.6577 11.476 78.5137 11.404 78.3457 11.404H67.0417C66.8737 11.404 66.7177 11.476 66.5737 11.62C66.4297 11.74 66.3577 11.896 66.3577 12.088V28H62.0737ZM94.4014 28C93.5134 28 92.7094 27.784 91.9894 27.352C91.2694 26.896 90.6814 26.308 90.2254 25.588C89.7934 24.868 89.5774 24.064 89.5774 23.176V11.944C89.5774 11.056 89.7934 10.252 90.2254 9.532C90.6814 8.812 91.2694 8.236 91.9894 7.804C92.7094 7.348 93.5134 7.12 94.4014 7.12H105.957C106.869 7.12 107.685 7.348 108.405 7.804C109.125 8.236 109.701 8.812 110.133 9.532C110.565 10.252 110.781 11.056 110.781 11.944V19.72H93.8614V23.032C93.8614 23.224 93.9214 23.392 94.0414 23.536C94.1854 23.656 94.3534 23.716 94.5454 23.716H110.781V28H94.4014ZM93.8614 15.796H106.497V12.088C106.497 11.896 106.425 11.74 106.281 11.62C106.161 11.476 106.005 11.404 105.813 11.404H94.5454C94.3534 11.404 94.1854 11.476 94.0414 11.62C93.9214 11.74 93.8614 11.896 93.8614 12.088V15.796ZM121.919 28C121.031 28 120.215 27.784 119.471 27.352C118.751 26.896 118.175 26.308 117.743 25.588C117.311 24.868 117.095 24.064 117.095 23.176V11.944C117.095 11.056 117.311 10.252 117.743 9.532C118.175 8.812 118.751 8.236 119.471 7.804C120.215 7.348 121.031 7.12 121.919 7.12H134.051V0.279999H138.335V28H121.919ZM122.099 23.716H133.367C133.559 23.716 133.715 23.656 133.835 23.536C133.979 23.392 134.051 23.224 134.051 23.032V12.088C134.051 11.896 133.979 11.74 133.835 11.62C133.715 11.476 133.559 11.404 133.367 11.404H122.099C121.907 11.404 121.739 11.476 121.595 11.62C121.475 11.74 121.415 11.896 121.415 12.088V23.032C121.415 23.224 121.475 23.392 121.595 23.536C121.739 23.656 121.907 23.716 122.099 23.716ZM149.732 28C148.844 28 148.028 27.784 147.284 27.352C146.564 26.896 145.988 26.308 145.556 25.588C145.124 24.868 144.908 24.064 144.908 23.176V7.12H149.192V23.032C149.192 23.224 149.252 23.392 149.372 23.536C149.516 23.656 149.684 23.716 149.876 23.716H161.144C161.336 23.716 161.492 23.656 161.612 23.536C161.756 23.392 161.828 23.224 161.828 23.032V7.12H166.112V23.176C166.112 24.064 165.896 24.868 165.464 25.588C165.032 26.308 164.456 26.896 163.736 27.352C163.016 27.784 162.2 28 161.288 28H149.732ZM178.327 28C177.439 28 176.635 27.784 175.915 27.352C175.195 26.896 174.607 26.308 174.151 25.588C173.719 24.868 173.503 24.064 173.503 23.176V0.243999H177.823V23.032C177.823 23.224 177.883 23.392 178.003 23.536C178.147 23.656 178.303 23.716 178.471 23.716H182.359V28H178.327ZM193.352 28C192.464 28 191.66 27.784 190.94 27.352C190.22 26.896 189.632 26.308 189.176 25.588C188.744 24.868 188.528 24.064 188.528 23.176V11.944C188.528 11.056 188.744 10.252 189.176 9.532C189.632 8.812 190.22 8.236 190.94 7.804C191.66 7.348 192.464 7.12 193.352 7.12H204.908C205.82 7.12 206.636 7.348 207.356 7.804C208.076 8.236 208.652 8.812 209.084 9.532C209.516 10.252 209.732 11.056 209.732 11.944V19.72H192.812V23.032C192.812 23.224 192.872 23.392 192.992 23.536C193.136 23.656 193.304 23.716 193.496 23.716H209.732V28H193.352ZM192.812 15.796H205.448V12.088C205.448 11.896 205.376 11.74 205.232 11.62C205.112 11.476 204.956 11.404 204.764 11.404H193.496C193.304 11.404 193.136 11.476 192.992 11.62C192.872 11.74 192.812 11.896 192.812 12.088V15.796Z" fill="#48E4D1"/>
</svg>
