<svg xmlns="http://www.w3.org/2000/svg" xmlns:xlink="http://www.w3.org/1999/xlink"><defs></defs><symbol id="aawum" viewBox="0 0 1398.6 305.6">
<path d="M67.7,305.6l8.3-43.2h76.8l8.3,43.2h74L162,0H71.6L0,305.6H67.7z M101.5,136.6c4.8-23.4,8.3-45.6,10.5-71.6h4.6
	c2.6,26,6.3,48.2,10.9,71.6l14.8,75.3H86.4L101.5,136.6z M302.4,305.6l8.3-43.2h76.8l8.3,43.2h74L396.7,0h-90.4l-71.6,305.6H302.4z
	 M336.2,136.6c4.8-23.4,8.3-45.6,10.5-71.6h4.6c2.6,26,6.3,48.2,10.9,71.6l14.8,75.3h-55.9L336.2,136.6z M583.3,305.6l15.1-109.1
	c2.4-17.2,5.9-48.9,8.5-85.3h4.6c2.6,36.5,6.1,68.3,8.5,85.8l15.3,108.7h83.4L770.2,0h-67.9l-19.4,147.8c-3.1,22.9-5,45.6-7.2,78.8
	h-4.8c-2-33.2-4.1-57.4-7.4-80.1L642.5,0h-64.2l-19.4,146.5c-3.1,22.7-5.7,46.9-7.6,80.1h-4.4c-2.2-33.4-4.1-55.9-7.4-78.8L518.3,0
	h-70.5l53.7,305.6H583.3z M887.7,306.2c67.4,0,103.9-29.6,103.9-86.1V0h-70.1v216.1c0,24.5-11.8,37.4-33.8,37.4
	s-33.6-12.9-33.6-37.4V0H784v220.1C784,276.6,820.3,306.2,887.7,306.2z M1052.6,349.2c-14-39.9-21.8-104.3-21.8-180.1
	c0-75.7,7.9-140.1,21.8-180.1h-17.5c-14,39.9-21.8,104.3-21.8,180.1c0,75.7,7.9,140.1,21.8,180.1H1052.6z M1131.5,305.6v-127
	c0-21.6-0.9-44.3-2.8-72.7l4.6-0.4l47.6,200.1h49.3l48-200.1l4.4,0.7c-2.2,28.4-2.8,50.9-2.8,72.5l-0.4,127h68.1V0h-88.2
	l-34.1,117.9c-4.8,16.4-10.7,45.4-16.6,85.6h-4.6c-5.5-40.2-11.6-69-16.6-85.6L1152.2,0h-87.7v305.6H1131.5z M1359.3-10.9
	c14,39.9,21.8,104.3,21.8,180.1c0,75.7-7.9,140.1-21.8,180.1h17.5c14-39.9,21.8-104.3,21.8-180.1c0-75.7-7.8-140.1-21.8-180.1
	C1376.8-10.9,1359.3-10.9,1359.3-10.9z"></path>
</symbol><symbol id="arrow" viewBox="0 0 19.16 10.61">
  <path d="M0,5.3H18" fill="none" stroke="currentColor"></path>
  <path d="M13.5,.35l4.95,4.95-4.95,4.95" fill="none" stroke="currentColor"></path>
</symbol><symbol id="cross" viewBox="0 0 10.71 10.61">
  <path d="M.35,.35L5.3,5.3,.35,10.25" fill="none" stroke="currentColor"></path>
  <path d="M10.35,10.25L5.4,5.3,10.35,.35" fill="none" stroke="currentColor"></path>
</symbol></svg>