<svg width="175" height="28" viewBox="0 0 175 28" fill="none" xmlns="http://www.w3.org/2000/svg">
<path d="M0.0880001 28V6.4C0.0880001 5.608 0.28 4.888 0.664 4.24C1.048 3.568 1.564 3.04 2.212 2.656C2.884 2.272 3.616 2.08 4.408 2.08H21.688C22.48 2.08 23.2 2.272 23.848 2.656C24.52 3.04 25.048 3.568 25.432 4.24C25.816 4.888 26.008 5.608 26.008 6.4V28H23.092V18.532H3.004V28H0.0880001ZM3.004 15.616H23.092V6.4C23.092 6.016 22.948 5.692 22.66 5.428C22.396 5.14 22.072 4.996 21.688 4.996H4.408C4.024 4.996 3.688 5.14 3.4 5.428C3.136 5.692 3.004 6.016 3.004 6.4V15.616ZM41.1617 28L32.9537 7.12H36.1217L42.4577 22.672L49.1897 7.12H53.0777L60.2418 22.636L66.1457 7.12H69.3497L61.4657 28H58.9097L51.1337 10.756L43.7537 28H41.1617ZM80.0882 28C79.2962 28 78.5642 27.808 77.8922 27.424C77.2442 27.016 76.7162 26.488 76.3082 25.84C75.9242 25.168 75.7322 24.436 75.7322 23.644V16.084H94.0202V11.476C94.0202 11.092 93.8762 10.768 93.5882 10.504C93.3242 10.216 93.0002 10.072 92.6162 10.072H75.7322V7.12H92.6162C93.4322 7.12 94.1642 7.324 94.8122 7.732C95.4842 8.116 96.0122 8.644 96.3962 9.316C96.8042 9.964 97.0082 10.684 97.0082 11.476V28H80.0882ZM80.0882 25.048H94.0202V19.036H78.6842V23.644C78.6842 24.028 78.8162 24.364 79.0802 24.652C79.3682 24.916 79.7042 25.048 80.0882 25.048ZM104.152 28V11.476C104.152 10.684 104.344 9.964 104.728 9.316C105.136 8.644 105.664 8.116 106.312 7.732C106.984 7.324 107.716 7.12 108.508 7.12H120.244V10.072H108.508C108.124 10.072 107.788 10.216 107.5 10.504C107.236 10.768 107.104 11.092 107.104 11.476V28H104.152ZM129.522 28C128.706 28 127.962 27.808 127.29 27.424C126.642 27.016 126.114 26.488 125.706 25.84C125.322 25.168 125.13 24.436 125.13 23.644V11.476C125.13 10.684 125.322 9.964 125.706 9.316C126.114 8.644 126.642 8.116 127.29 7.732C127.962 7.324 128.706 7.12 129.522 7.12H143.454V0.279999H146.406V28H129.522ZM129.522 25.048H142.05C142.434 25.048 142.758 24.916 143.022 24.652C143.31 24.364 143.454 24.028 143.454 23.644V11.476C143.454 11.092 143.31 10.768 143.022 10.504C142.758 10.216 142.434 10.072 142.05 10.072H129.522C129.138 10.072 128.802 10.216 128.514 10.504C128.25 10.768 128.118 11.092 128.118 11.476V23.644C128.118 24.028 128.25 24.364 128.514 24.652C128.802 24.916 129.138 25.048 129.522 25.048ZM157.998 28C157.206 28 156.474 27.808 155.802 27.424C155.154 27.016 154.626 26.488 154.218 25.84C153.834 25.168 153.642 24.436 153.642 23.644V23.356H156.594V23.644C156.594 24.028 156.726 24.364 156.99 24.652C157.278 24.916 157.614 25.048 157.998 25.048H170.526C170.91 25.048 171.234 24.916 171.498 24.652C171.786 24.364 171.93 24.028 171.93 23.644V20.44C171.93 20.056 171.786 19.732 171.498 19.468C171.234 19.18 170.91 19.036 170.526 19.036H157.998C157.206 19.036 156.474 18.844 155.802 18.46C155.154 18.052 154.626 17.524 154.218 16.876C153.834 16.204 153.642 15.472 153.642 14.68V11.476C153.642 10.684 153.834 9.964 154.218 9.316C154.626 8.644 155.154 8.116 155.802 7.732C156.474 7.324 157.206 7.12 157.998 7.12H170.526C171.342 7.12 172.074 7.324 172.722 7.732C173.394 8.116 173.922 8.644 174.306 9.316C174.714 9.964 174.918 10.684 174.918 11.476V11.764H171.93V11.476C171.93 11.092 171.786 10.768 171.498 10.504C171.234 10.216 170.91 10.072 170.526 10.072H157.998C157.614 10.072 157.278 10.216 156.99 10.504C156.726 10.768 156.594 11.092 156.594 11.476V14.68C156.594 15.064 156.726 15.4 156.99 15.688C157.278 15.952 157.614 16.084 157.998 16.084H170.526C171.342 16.084 172.074 16.288 172.722 16.696C173.394 17.08 173.922 17.608 174.306 18.28C174.714 18.928 174.918 19.648 174.918 20.44V23.644C174.918 24.436 174.714 25.168 174.306 25.84C173.922 26.488 173.394 27.016 172.722 27.424C172.074 27.808 171.342 28 170.526 28H157.998Z" fill="#48E4D1"/>
</svg>
